<?xml version="1.0" encoding="UTF-8" standalone="no"?>
<!DOCTYPE svg PUBLIC "-//W3C//DTD SVG 1.1//EN"
 "http://www.w3.org/Graphics/SVG/1.1/DTD/svg11.dtd">
<!-- Generated by graphviz version 2.43.0 (0)
 -->
<!-- Title: G Pages: 1 -->
<svg width="2134pt" height="787pt"
 viewBox="0.00 0.00 2134.36 787.23" xmlns="http://www.w3.org/2000/svg" xmlns:xlink="http://www.w3.org/1999/xlink">
<g id="graph0" class="graph" transform="scale(1 1) rotate(0) translate(4 783.23)">
<title>G</title><style>.edge>path:hover{stroke-width:8}</style>
<polygon fill="white" stroke="transparent" points="-4,4 -4,-783.23 2130.36,-783.23 2130.36,4 -4,4"/>
<!-- flask -->
<g id="node1" class="node">
<title>flask</title><style>.edge>path:hover{stroke-width:8}</style>
<ellipse fill="#f30c0c" stroke="black" cx="327.63" cy="-610.8" rx="27" ry="18"/>
<text text-anchor="middle" x="327.63" y="-608.3" font-family="Helvetica,sans-Serif" font-size="10.00" fill="#ffffff">flask</text>
</g>
<!-- flask_socketio -->
<g id="node3" class="node">
<title>flask_socketio</title><style>.edge>path:hover{stroke-width:8}</style>
<ellipse fill="#6ab34c" stroke="black" cx="50.63" cy="-254.35" rx="50.75" ry="18"/>
<text text-anchor="middle" x="50.63" y="-251.85" font-family="Helvetica,sans-Serif" font-size="10.00" fill="#000000">flask_socketio</text>
</g>
<!-- flask&#45;&gt;flask_socketio -->
<g id="edge1" class="edge">
<title>flask&#45;&gt;flask_socketio</title><style>.edge>path:hover{stroke-width:8}</style>
<path fill="none" stroke="black" d="M300.43,-610.52C260.27,-609.95 185.86,-602.34 148.63,-556.8 87.64,-482.21 137.25,-436.89 129.63,-340.84"/>
<path fill="none" stroke="black" d="M129.63,-338.84C128.35,-311.86 106.34,-290.07 85.87,-275.53"/>
<polygon fill="#f30c0c" stroke="black" points="87.81,-272.62 77.56,-269.93 83.9,-278.42 87.81,-272.62"/>
</g>
<!-- website_youtube_dl -->
<g id="node8" class="node">
<title>website_youtube_dl</title><style>.edge>path:hover{stroke-width:8}</style>
<polygon fill="blue" stroke="black" points="492.63,-39.21 378.63,-39.21 378.63,-3.21 492.63,-3.21 492.63,-39.21"/>
<text text-anchor="middle" x="435.63" y="-18.71" font-family="Helvetica,sans-Serif" font-size="10.00" fill="white">website_youtube_dl</text>
</g>
<!-- flask&#45;&gt;website_youtube_dl -->
<g id="edge2" class="edge">
<title>flask&#45;&gt;website_youtube_dl</title><style>.edge>path:hover{stroke-width:8}</style>
<path fill="none" stroke="black" d="M129.63,-338.84C127.66,-301.79 133.67,-292.24 129.63,-255.35"/>
<path fill="none" stroke="black" d="M129.63,-253.35C125.99,-220.22 121.8,-210.75 129.63,-178.35"/>
</g>
<!-- website_youtube_dl_flaskAPI_session -->
<g id="node25" class="node">
<title>website_youtube_dl_flaskAPI_session</title><style>.edge>path:hover{stroke-width:8}</style>
<ellipse fill="#5926d9" stroke="black" cx="413.63" cy="-339.84" rx="82.96" ry="28.98"/>
<text text-anchor="middle" x="413.63" y="-348.34" font-family="Helvetica,sans-Serif" font-size="10.00" fill="#ffffff">website_youtube_dl.</text>
<text text-anchor="middle" x="413.63" y="-337.34" font-family="Helvetica,sans-Serif" font-size="10.00" fill="#ffffff">flaskAPI.</text>
<text text-anchor="middle" x="413.63" y="-326.34" font-family="Helvetica,sans-Serif" font-size="10.00" fill="#ffffff">session</text>
</g>
<!-- flask&#45;&gt;website_youtube_dl_flaskAPI_session -->
<g id="edge3" class="edge">
<title>flask&#45;&gt;website_youtube_dl_flaskAPI_session</title><style>.edge>path:hover{stroke-width:8}</style>
<path fill="none" stroke="black" d="M351.75,-602.22C409.52,-582.51 549.22,-524.85 524.63,-434.83"/>
<path fill="none" stroke="black" d="M524.63,-432.83C522.73,-403.9 499.82,-382.31 475.3,-367.35"/>
<polygon fill="#f30c0c" stroke="black" points="477.01,-364.3 466.59,-362.34 473.51,-370.36 477.01,-364.3"/>
</g>
<!-- website_youtube_dl_flaskAPI_youtube -->
<g id="node26" class="node">
<title>website_youtube_dl_flaskAPI_youtube</title><style>.edge>path:hover{stroke-width:8}</style>
<polygon fill="blue" stroke="black" points="438.13,-274.85 321.13,-274.85 321.13,-233.85 438.13,-233.85 438.13,-274.85"/>
<text text-anchor="middle" x="379.63" y="-262.85" font-family="Helvetica,sans-Serif" font-size="10.00" fill="white">website_youtube_dl.</text>
<text text-anchor="middle" x="379.63" y="-251.85" font-family="Helvetica,sans-Serif" font-size="10.00" fill="white">flaskAPI.</text>
<text text-anchor="middle" x="379.63" y="-240.85" font-family="Helvetica,sans-Serif" font-size="10.00" fill="white">youtube</text>
</g>
<!-- flask&#45;&gt;website_youtube_dl_flaskAPI_youtube -->
<g id="edge4" class="edge">
<title>flask&#45;&gt;website_youtube_dl_flaskAPI_youtube</title><style>.edge>path:hover{stroke-width:8}</style>
<path fill="none" stroke="black" d="M524.63,-432.83C521.03,-378.08 539.06,-354.36 505.63,-310.85 491.29,-292.2 469.35,-279.68 447.77,-271.34"/>
<polygon fill="#f30c0c" stroke="black" points="448.84,-268.01 438.24,-267.91 446.46,-274.59 448.84,-268.01"/>
</g>
<!-- website_youtube_dl_flaskAPI_youtubeModifyPlaylist -->
<g id="node28" class="node">
<title>website_youtube_dl_flaskAPI_youtubeModifyPlaylist</title><style>.edge>path:hover{stroke-width:8}</style>
<polygon fill="blue" stroke="black" points="317.13,-197.85 192.13,-197.85 192.13,-156.85 317.13,-156.85 317.13,-197.85"/>
<text text-anchor="middle" x="254.63" y="-185.85" font-family="Helvetica,sans-Serif" font-size="10.00" fill="white">website_youtube_dl.</text>
<text text-anchor="middle" x="254.63" y="-174.85" font-family="Helvetica,sans-Serif" font-size="10.00" fill="white">flaskAPI.</text>
<text text-anchor="middle" x="254.63" y="-163.85" font-family="Helvetica,sans-Serif" font-size="10.00" fill="white">youtubeModifyPlaylist</text>
</g>
<!-- flask&#45;&gt;website_youtube_dl_flaskAPI_youtubeModifyPlaylist -->
<g id="edge5" class="edge">
<title>flask&#45;&gt;website_youtube_dl_flaskAPI_youtubeModifyPlaylist</title><style>.edge>path:hover{stroke-width:8}</style>
<path fill="none" stroke="black" d="M129.63,-338.84C126.91,-281.61 177.84,-232.47 215.51,-204.14"/>
<polygon fill="#f30c0c" stroke="black" points="217.79,-206.81 223.8,-198.08 213.66,-201.16 217.79,-206.81"/>
</g>
<!-- flask_session -->
<g id="node2" class="node">
<title>flask_session</title><style>.edge>path:hover{stroke-width:8}</style>
<ellipse fill="#b6a853" stroke="black" cx="303.63" cy="-99.64" rx="48.04" ry="18"/>
<text text-anchor="middle" x="303.63" y="-97.14" font-family="Helvetica,sans-Serif" font-size="10.00" fill="#000000">flask_session</text>
</g>
<!-- flask_session&#45;&gt;website_youtube_dl -->
<g id="edge6" class="edge">
<title>flask_session&#45;&gt;website_youtube_dl</title><style>.edge>path:hover{stroke-width:8}</style>
<path fill="none" stroke="black" d="M328.76,-84.08C348.09,-72.89 375.13,-57.24 397.17,-44.48"/>
<polygon fill="#b6a853" stroke="black" points="399.06,-47.43 405.96,-39.39 395.56,-41.37 399.06,-47.43"/>
</g>
<!-- flask_socketio&#45;&gt;website_youtube_dl -->
<g id="edge7" class="edge">
<title>flask_socketio&#45;&gt;website_youtube_dl</title><style>.edge>path:hover{stroke-width:8}</style>
<path fill="none" stroke="black" d="M77.84,-238.84C98.02,-226.09 123.1,-205.38 129.63,-178.35"/>
<path fill="none" stroke="black" d="M129.63,-176.35C137.53,-143.64 119,-132.57 129.63,-100.64"/>
<path fill="none" stroke="black" d="M129.63,-98.64C144.79,-53.08 282.78,-34.08 368.19,-26.62"/>
<polygon fill="#6ab34c" stroke="black" points="368.67,-30.1 378.34,-25.77 368.08,-23.12 368.67,-30.1"/>
</g>
<!-- mutagen -->
<g id="node4" class="node">
<title>mutagen</title><style>.edge>path:hover{stroke-width:8}</style>
<ellipse fill="#26d98c" stroke="black" cx="1382.63" cy="-682.8" rx="35.14" ry="18"/>
<text text-anchor="middle" x="1382.63" y="-680.3" font-family="Helvetica,sans-Serif" font-size="10.00" fill="#000000">mutagen</text>
</g>
<!-- website_youtube_dl_common_easyID3Manager -->
<g id="node11" class="node">
<title>website_youtube_dl_common_easyID3Manager</title><style>.edge>path:hover{stroke-width:8}</style>
<ellipse fill="#532db4" stroke="black" cx="1445.63" cy="-433.83" rx="82.96" ry="28.98"/>
<text text-anchor="middle" x="1445.63" y="-442.33" font-family="Helvetica,sans-Serif" font-size="10.00" fill="#ffffff">website_youtube_dl.</text>
<text text-anchor="middle" x="1445.63" y="-431.33" font-family="Helvetica,sans-Serif" font-size="10.00" fill="#ffffff">common.</text>
<text text-anchor="middle" x="1445.63" y="-420.33" font-family="Helvetica,sans-Serif" font-size="10.00" fill="#ffffff">easyID3Manager</text>
</g>
<!-- mutagen&#45;&gt;website_youtube_dl_common_easyID3Manager -->
<g id="edge8" class="edge">
<title>mutagen&#45;&gt;website_youtube_dl_common_easyID3Manager</title><style>.edge>path:hover{stroke-width:8}</style>
<path fill="none" stroke="black" d="M1405.8,-668.83C1424.11,-656.66 1446.49,-636.64 1445.63,-611.8"/>
<path fill="none" stroke="black" d="M1445.63,-609.8C1444,-562.89 1444.34,-508.86 1444.86,-473.4"/>
<polygon fill="#26d98c" stroke="black" points="1448.36,-473.08 1445.02,-463.02 1441.36,-472.96 1448.36,-473.08"/>
</g>
<!-- mutagen_easyid3 -->
<g id="node5" class="node">
<title>mutagen_easyid3</title><style>.edge>path:hover{stroke-width:8}</style>
<ellipse fill="#40c089" stroke="black" cx="1484.63" cy="-758.01" rx="44.6" ry="21.43"/>
<text text-anchor="middle" x="1484.63" y="-761.01" font-family="Helvetica,sans-Serif" font-size="10.00" fill="#000000">mutagen.</text>
<text text-anchor="middle" x="1484.63" y="-750.01" font-family="Helvetica,sans-Serif" font-size="10.00" fill="#000000">easyid3</text>
</g>
<!-- mutagen_mp3 -->
<g id="node6" class="node">
<title>mutagen_mp3</title><style>.edge>path:hover{stroke-width:8}</style>
<ellipse fill="#49ac81" stroke="black" cx="1523.63" cy="-682.8" rx="50.07" ry="18"/>
<text text-anchor="middle" x="1523.63" y="-680.3" font-family="Helvetica,sans-Serif" font-size="10.00" fill="#000000">mutagen.mp3</text>
</g>
<!-- mutagen_easyid3&#45;&gt;mutagen_mp3 -->
<g id="edge9" class="edge">
<title>mutagen_easyid3&#45;&gt;mutagen_mp3</title><style>.edge>path:hover{stroke-width:8}</style>
<path fill="none" stroke="black" d="M1495.28,-737.01C1499.77,-728.59 1505.05,-718.68 1509.82,-709.71"/>
<polygon fill="#40c089" stroke="black" points="1512.95,-711.28 1514.57,-700.8 1506.78,-707.99 1512.95,-711.28"/>
</g>
<!-- mutagen_easyid3&#45;&gt;website_youtube_dl_common_easyID3Manager -->
<g id="edge10" class="edge">
<title>mutagen_easyid3&#45;&gt;website_youtube_dl_common_easyID3Manager</title><style>.edge>path:hover{stroke-width:8}</style>
<path fill="none" stroke="black" d="M1476.13,-736.78C1465.23,-709.13 1447.49,-657.71 1445.63,-611.8"/>
</g>
<!-- mutagen_mp3&#45;&gt;website_youtube_dl_common_easyID3Manager -->
<g id="edge11" class="edge">
<title>mutagen_mp3&#45;&gt;website_youtube_dl_common_easyID3Manager</title><style>.edge>path:hover{stroke-width:8}</style>
<path fill="none" stroke="black" d="M1492.51,-668.36C1471.24,-656.86 1446.69,-637.98 1445.63,-611.8"/>
</g>
<!-- simplegmail -->
<g id="node7" class="node">
<title>simplegmail</title><style>.edge>path:hover{stroke-width:8}</style>
<ellipse fill="#4089c0" stroke="black" cx="2043.63" cy="-758.01" rx="45.15" ry="18"/>
<text text-anchor="middle" x="2043.63" y="-755.51" font-family="Helvetica,sans-Serif" font-size="10.00" fill="#ffffff">simplegmail</text>
</g>
<!-- website_youtube_dl_common_mailManager -->
<g id="node12" class="node">
<title>website_youtube_dl_common_mailManager</title><style>.edge>path:hover{stroke-width:8}</style>
<ellipse fill="#6a4cb3" stroke="black" cx="2043.63" cy="-527.81" rx="82.96" ry="28.98"/>
<text text-anchor="middle" x="2043.63" y="-536.31" font-family="Helvetica,sans-Serif" font-size="10.00" fill="#ffffff">website_youtube_dl.</text>
<text text-anchor="middle" x="2043.63" y="-525.31" font-family="Helvetica,sans-Serif" font-size="10.00" fill="#ffffff">common.</text>
<text text-anchor="middle" x="2043.63" y="-514.31" font-family="Helvetica,sans-Serif" font-size="10.00" fill="#ffffff">mailManager</text>
</g>
<!-- simplegmail&#45;&gt;website_youtube_dl_common_mailManager -->
<g id="edge12" class="edge">
<title>simplegmail&#45;&gt;website_youtube_dl_common_mailManager</title><style>.edge>path:hover{stroke-width:8}</style>
<path fill="none" stroke="black" d="M2043.63,-739.86C2043.63,-703.38 2043.63,-617.32 2043.63,-567.09"/>
<polygon fill="#4089c0" stroke="black" points="2047.13,-566.94 2043.63,-556.94 2040.13,-566.94 2047.13,-566.94"/>
</g>
<!-- website_youtube_dl_common -->
<g id="node9" class="node">
<title>website_youtube_dl_common</title><style>.edge>path:hover{stroke-width:8}</style>
<ellipse fill="#5516f3" stroke="black" cx="240.63" cy="-527.81" rx="82.96" ry="21.43"/>
<text text-anchor="middle" x="240.63" y="-530.81" font-family="Helvetica,sans-Serif" font-size="10.00" fill="#ffffff">website_youtube_dl.</text>
<text text-anchor="middle" x="240.63" y="-519.81" font-family="Helvetica,sans-Serif" font-size="10.00" fill="#ffffff">common</text>
</g>
<!-- website_youtube_dl_common&#45;&gt;website_youtube_dl -->
<g id="edge13" class="edge">
<title>website_youtube_dl_common&#45;&gt;website_youtube_dl</title><style>.edge>path:hover{stroke-width:8}</style>
<path fill="none" stroke="black" d="M214.43,-507.52C194.91,-490.87 171.04,-464.81 167.63,-434.83"/>
<path fill="none" stroke="black" d="M167.63,-432.83C163,-392.21 152.18,-378.7 167.63,-340.84"/>
<path fill="none" stroke="black" d="M167.63,-338.84C183.02,-301.09 134.07,-295.88 129.63,-255.35"/>
</g>
<!-- website_youtube_dl_flaskAPI_emits -->
<g id="node23" class="node">
<title>website_youtube_dl_flaskAPI_emits</title><style>.edge>path:hover{stroke-width:8}</style>
<polygon fill="blue" stroke="black" points="313.13,-360.34 196.13,-360.34 196.13,-319.34 313.13,-319.34 313.13,-360.34"/>
<text text-anchor="middle" x="254.63" y="-348.34" font-family="Helvetica,sans-Serif" font-size="10.00" fill="white">website_youtube_dl.</text>
<text text-anchor="middle" x="254.63" y="-337.34" font-family="Helvetica,sans-Serif" font-size="10.00" fill="white">flaskAPI.</text>
<text text-anchor="middle" x="254.63" y="-326.34" font-family="Helvetica,sans-Serif" font-size="10.00" fill="white">emits</text>
</g>
<!-- website_youtube_dl_common&#45;&gt;website_youtube_dl_flaskAPI_emits -->
<g id="edge14" class="edge">
<title>website_youtube_dl_common&#45;&gt;website_youtube_dl_flaskAPI_emits</title><style>.edge>path:hover{stroke-width:8}</style>
<path fill="none" stroke="black" d="M167.63,-432.83C164.46,-405.04 185.93,-382.15 208.34,-366.15"/>
<polygon fill="#5516f3" stroke="black" points="210.59,-368.86 216.92,-360.37 206.67,-363.06 210.59,-368.86"/>
</g>
<!-- website_youtube_dl_common&#45;&gt;website_youtube_dl_flaskAPI_youtube -->
<g id="edge15" class="edge">
<title>website_youtube_dl_common&#45;&gt;website_youtube_dl_flaskAPI_youtube</title><style>.edge>path:hover{stroke-width:8}</style>
<path fill="none" stroke="black" d="M167.63,-338.84C172.72,-324.7 174.45,-319.68 186.63,-310.85 191.94,-307 257.82,-288.47 311.15,-273.86"/>
<polygon fill="#5516f3" stroke="black" points="312.22,-277.2 320.94,-271.19 310.37,-270.45 312.22,-277.2"/>
</g>
<!-- website_youtube_dl_flaskAPI_youtubeHelper -->
<g id="node27" class="node">
<title>website_youtube_dl_flaskAPI_youtubeHelper</title><style>.edge>path:hover{stroke-width:8}</style>
<polygon fill="blue" stroke="black" points="525.13,-197.85 408.13,-197.85 408.13,-156.85 525.13,-156.85 525.13,-197.85"/>
<text text-anchor="middle" x="466.63" y="-185.85" font-family="Helvetica,sans-Serif" font-size="10.00" fill="white">website_youtube_dl.</text>
<text text-anchor="middle" x="466.63" y="-174.85" font-family="Helvetica,sans-Serif" font-size="10.00" fill="white">flaskAPI.</text>
<text text-anchor="middle" x="466.63" y="-163.85" font-family="Helvetica,sans-Serif" font-size="10.00" fill="white">youtubeHelper</text>
</g>
<!-- website_youtube_dl_common&#45;&gt;website_youtube_dl_flaskAPI_youtubeHelper -->
<g id="edge16" class="edge">
<title>website_youtube_dl_common&#45;&gt;website_youtube_dl_flaskAPI_youtubeHelper</title><style>.edge>path:hover{stroke-width:8}</style>
<path fill="none" stroke="black" d="M167.63,-338.84C190.61,-274.95 218.77,-265.93 278.63,-233.85 289.56,-227.99 349,-210.81 398.17,-197.1"/>
<polygon fill="#5516f3" stroke="black" points="399.15,-200.46 407.84,-194.41 397.27,-193.72 399.15,-200.46"/>
</g>
<!-- website_youtube_dl_common_configKeys -->
<g id="node10" class="node">
<title>website_youtube_dl_common_configKeys</title><style>.edge>path:hover{stroke-width:8}</style>
<ellipse fill="#6a47c2" stroke="black" cx="1860.63" cy="-527.81" rx="82.96" ry="28.98"/>
<text text-anchor="middle" x="1860.63" y="-536.31" font-family="Helvetica,sans-Serif" font-size="10.00" fill="#ffffff">website_youtube_dl.</text>
<text text-anchor="middle" x="1860.63" y="-525.31" font-family="Helvetica,sans-Serif" font-size="10.00" fill="#ffffff">common.</text>
<text text-anchor="middle" x="1860.63" y="-514.31" font-family="Helvetica,sans-Serif" font-size="10.00" fill="#ffffff">configKeys</text>
</g>
<!-- website_youtube_dl_common_youtubeConfigManager -->
<g id="node16" class="node">
<title>website_youtube_dl_common_youtubeConfigManager</title><style>.edge>path:hover{stroke-width:8}</style>
<ellipse fill="#5926d9" stroke="black" cx="1860.63" cy="-433.83" rx="91.85" ry="28.98"/>
<text text-anchor="middle" x="1860.63" y="-442.33" font-family="Helvetica,sans-Serif" font-size="10.00" fill="#ffffff">website_youtube_dl.</text>
<text text-anchor="middle" x="1860.63" y="-431.33" font-family="Helvetica,sans-Serif" font-size="10.00" fill="#ffffff">common.</text>
<text text-anchor="middle" x="1860.63" y="-420.33" font-family="Helvetica,sans-Serif" font-size="10.00" fill="#ffffff">youtubeConfigManager</text>
</g>
<!-- website_youtube_dl_common_configKeys&#45;&gt;website_youtube_dl_common_youtubeConfigManager -->
<g id="edge17" class="edge">
<title>website_youtube_dl_common_configKeys&#45;&gt;website_youtube_dl_common_youtubeConfigManager</title><style>.edge>path:hover{stroke-width:8}</style>
<path fill="none" stroke="black" d="M1860.63,-498.71C1860.63,-490.67 1860.63,-481.77 1860.63,-473.23"/>
<polygon fill="#6a47c2" stroke="black" points="1864.13,-473.07 1860.63,-463.07 1857.13,-473.07 1864.13,-473.07"/>
</g>
<!-- website_youtube_dl_common_youtubeDL -->
<g id="node18" class="node">
<title>website_youtube_dl_common_youtubeDL</title><style>.edge>path:hover{stroke-width:8}</style>
<polygon fill="blue" stroke="black" points="1393.13,-360.34 1276.13,-360.34 1276.13,-319.34 1393.13,-319.34 1393.13,-360.34"/>
<text text-anchor="middle" x="1334.63" y="-348.34" font-family="Helvetica,sans-Serif" font-size="10.00" fill="white">website_youtube_dl.</text>
<text text-anchor="middle" x="1334.63" y="-337.34" font-family="Helvetica,sans-Serif" font-size="10.00" fill="white">common.</text>
<text text-anchor="middle" x="1334.63" y="-326.34" font-family="Helvetica,sans-Serif" font-size="10.00" fill="white">youtubeDL</text>
</g>
<!-- website_youtube_dl_common_easyID3Manager&#45;&gt;website_youtube_dl_common_youtubeDL -->
<g id="edge18" class="edge">
<title>website_youtube_dl_common_easyID3Manager&#45;&gt;website_youtube_dl_common_youtubeDL</title><style>.edge>path:hover{stroke-width:8}</style>
<path fill="none" stroke="black" d="M1414.41,-406.96C1399.37,-394.5 1381.36,-379.58 1366.27,-367.07"/>
<polygon fill="#532db4" stroke="black" points="1368.15,-364.08 1358.22,-360.39 1363.68,-369.47 1368.15,-364.08"/>
</g>
<!-- website_youtube_dl_common_easyID3Manager&#45;&gt;website_youtube_dl_flaskAPI_youtubeHelper -->
<g id="edge19" class="edge">
<title>website_youtube_dl_common_easyID3Manager&#45;&gt;website_youtube_dl_flaskAPI_youtubeHelper</title><style>.edge>path:hover{stroke-width:8}</style>
<path fill="none" stroke="black" d="M1382.86,-414.93C1316.1,-394.49 1223.19,-361.26 1247.63,-340.84"/>
</g>
<!-- website_youtube_dl_common_myLogger -->
<g id="node13" class="node">
<title>website_youtube_dl_common_myLogger</title><style>.edge>path:hover{stroke-width:8}</style>
<ellipse fill="#653bce" stroke="black" cx="1667.63" cy="-433.83" rx="82.96" ry="28.98"/>
<text text-anchor="middle" x="1667.63" y="-442.33" font-family="Helvetica,sans-Serif" font-size="10.00" fill="#ffffff">website_youtube_dl.</text>
<text text-anchor="middle" x="1667.63" y="-431.33" font-family="Helvetica,sans-Serif" font-size="10.00" fill="#ffffff">common.</text>
<text text-anchor="middle" x="1667.63" y="-420.33" font-family="Helvetica,sans-Serif" font-size="10.00" fill="#ffffff">myLogger</text>
</g>
<!-- website_youtube_dl_common_myLogger&#45;&gt;website_youtube_dl_common_youtubeDL -->
<g id="edge20" class="edge">
<title>website_youtube_dl_common_myLogger&#45;&gt;website_youtube_dl_common_youtubeDL</title><style>.edge>path:hover{stroke-width:8}</style>
<path fill="none" stroke="black" d="M1605.95,-414.39C1594.25,-411.08 1582.09,-407.75 1570.63,-404.84 1498.73,-386.54 1478.68,-390.18 1407.63,-368.84 1402.63,-367.34 1397.5,-365.66 1392.37,-363.89"/>
<polygon fill="#653bce" stroke="black" points="1393.17,-360.45 1382.57,-360.39 1390.82,-367.05 1393.17,-360.45"/>
</g>
<!-- website_youtube_dl_common_myLogger&#45;&gt;website_youtube_dl_flaskAPI_youtubeHelper -->
<g id="edge21" class="edge">
<title>website_youtube_dl_common_myLogger&#45;&gt;website_youtube_dl_flaskAPI_youtubeHelper</title><style>.edge>path:hover{stroke-width:8}</style>
<path fill="none" stroke="black" d="M1604.41,-415.12C1540,-397 1449.03,-371.17 1445.63,-368.84 1418.95,-350.54 1424.01,-334.21 1401.63,-310.85 1374.87,-282.93 1360.73,-283.88 1334.63,-255.35"/>
</g>
<!-- website_youtube_dl_common_utils -->
<g id="node14" class="node">
<title>website_youtube_dl_common_utils</title><style>.edge>path:hover{stroke-width:8}</style>
<ellipse fill="#6a47c2" stroke="black" cx="635.63" cy="-433.83" rx="82.96" ry="28.98"/>
<text text-anchor="middle" x="635.63" y="-442.33" font-family="Helvetica,sans-Serif" font-size="10.00" fill="#ffffff">website_youtube_dl.</text>
<text text-anchor="middle" x="635.63" y="-431.33" font-family="Helvetica,sans-Serif" font-size="10.00" fill="#ffffff">common.</text>
<text text-anchor="middle" x="635.63" y="-420.33" font-family="Helvetica,sans-Serif" font-size="10.00" fill="#ffffff">utils</text>
</g>
<!-- website_youtube_dl_common_utils&#45;&gt;website_youtube_dl_flaskAPI_youtube -->
<g id="edge22" class="edge">
<title>website_youtube_dl_common_utils&#45;&gt;website_youtube_dl_flaskAPI_youtube</title><style>.edge>path:hover{stroke-width:8}</style>
<path fill="none" stroke="black" d="M688.27,-411.3C731.12,-391.41 779.54,-361.85 746.63,-340.84"/>
<path fill="none" stroke="black" d="M746.63,-338.84C733.95,-330.76 740.31,-318.92 727.63,-310.85 682.43,-282.12 536.3,-266.73 448.43,-259.87"/>
<polygon fill="#6a47c2" stroke="black" points="448.51,-256.37 438.27,-259.1 447.98,-263.35 448.51,-256.37"/>
</g>
<!-- website_youtube_dl_common_youtubeAPI -->
<g id="node15" class="node">
<title>website_youtube_dl_common_youtubeAPI</title><style>.edge>path:hover{stroke-width:8}</style>
<ellipse fill="#602fdb" stroke="black" cx="1040.63" cy="-433.83" rx="82.96" ry="28.98"/>
<text text-anchor="middle" x="1040.63" y="-442.33" font-family="Helvetica,sans-Serif" font-size="10.00" fill="#ffffff">website_youtube_dl.</text>
<text text-anchor="middle" x="1040.63" y="-431.33" font-family="Helvetica,sans-Serif" font-size="10.00" fill="#ffffff">common.</text>
<text text-anchor="middle" x="1040.63" y="-420.33" font-family="Helvetica,sans-Serif" font-size="10.00" fill="#ffffff">youtubeAPI</text>
</g>
<!-- website_youtube_dl_common_youtubeAPI&#45;&gt;website_youtube_dl_common_youtubeDL -->
<g id="edge23" class="edge">
<title>website_youtube_dl_common_youtubeAPI&#45;&gt;website_youtube_dl_common_youtubeDL</title><style>.edge>path:hover{stroke-width:8}</style>
<path fill="none" stroke="black" d="M1101.25,-413.92C1111.38,-410.83 1121.79,-407.71 1131.63,-404.84 1189.17,-388.02 1204.68,-387.59 1261.63,-368.84 1266.22,-367.32 1270.95,-365.69 1275.68,-364"/>
<polygon fill="#602fdb" stroke="black" points="1277.18,-367.18 1285.38,-360.46 1274.78,-360.6 1277.18,-367.18"/>
</g>
<!-- website_youtube_dl_common_youtubeAPI&#45;&gt;website_youtube_dl_flaskAPI_youtube -->
<g id="edge24" class="edge">
<title>website_youtube_dl_common_youtubeAPI&#45;&gt;website_youtube_dl_flaskAPI_youtube</title><style>.edge>path:hover{stroke-width:8}</style>
<path fill="none" stroke="black" d="M980.01,-414.08C894.69,-387.65 749.17,-342.47 746.63,-340.84"/>
</g>
<!-- website_youtube_dl_common_youtubeAPI&#45;&gt;website_youtube_dl_flaskAPI_youtubeHelper -->
<g id="edge25" class="edge">
<title>website_youtube_dl_common_youtubeAPI&#45;&gt;website_youtube_dl_flaskAPI_youtubeHelper</title><style>.edge>path:hover{stroke-width:8}</style>
<path fill="none" stroke="black" d="M1095.93,-412.23C1148.66,-391.9 1223.48,-361.01 1247.63,-340.84"/>
</g>
<!-- website_youtube_dl_common_youtubeConfigManager&#45;&gt;website_youtube_dl -->
<g id="edge26" class="edge">
<title>website_youtube_dl_common_youtubeConfigManager&#45;&gt;website_youtube_dl</title><style>.edge>path:hover{stroke-width:8}</style>
<path fill="none" stroke="black" d="M1459.63,-253.35C1109.46,-130.52 668.53,-56.86 502.73,-31.86"/>
<polygon fill="#5926d9" stroke="black" points="503.09,-28.37 492.68,-30.35 502.05,-35.3 503.09,-28.37"/>
</g>
<!-- website_youtube_dl_common_youtubeConfigManager&#45;&gt;website_youtube_dl_common_youtubeDL -->
<g id="edge27" class="edge">
<title>website_youtube_dl_common_youtubeConfigManager&#45;&gt;website_youtube_dl_common_youtubeDL</title><style>.edge>path:hover{stroke-width:8}</style>
<path fill="none" stroke="black" d="M1795.78,-413.25C1783.84,-410.1 1771.41,-407.13 1759.63,-404.84 1621.74,-378 1583.81,-394.07 1445.63,-368.84 1431.86,-366.32 1417.27,-363.07 1403.35,-359.69"/>
<polygon fill="#5926d9" stroke="black" points="1403.9,-356.22 1393.35,-357.2 1402.21,-363.01 1403.9,-356.22"/>
</g>
<!-- website_youtube_dl_common_youtubeConfigManager&#45;&gt;website_youtube_dl_flaskAPI_youtubeHelper -->
<g id="edge28" class="edge">
<title>website_youtube_dl_common_youtubeConfigManager&#45;&gt;website_youtube_dl_flaskAPI_youtubeHelper</title><style>.edge>path:hover{stroke-width:8}</style>
<path fill="none" stroke="black" d="M1797.82,-412.47C1697.02,-378.63 1505.76,-309.19 1459.63,-255.35"/>
<path fill="none" stroke="black" d="M1459.63,-253.35C1288.53,-193.33 731.21,-181.32 535.4,-178.94"/>
<polygon fill="#5926d9" stroke="black" points="535.28,-175.43 525.24,-178.82 535.2,-182.43 535.28,-175.43"/>
</g>
<!-- website_youtube_dl_common_youtubeDataKeys -->
<g id="node17" class="node">
<title>website_youtube_dl_common_youtubeDataKeys</title><style>.edge>path:hover{stroke-width:8}</style>
<ellipse fill="#5a22e7" stroke="black" cx="1334.63" cy="-527.81" rx="82.96" ry="28.98"/>
<text text-anchor="middle" x="1334.63" y="-536.31" font-family="Helvetica,sans-Serif" font-size="10.00" fill="#ffffff">website_youtube_dl.</text>
<text text-anchor="middle" x="1334.63" y="-525.31" font-family="Helvetica,sans-Serif" font-size="10.00" fill="#ffffff">common.</text>
<text text-anchor="middle" x="1334.63" y="-514.31" font-family="Helvetica,sans-Serif" font-size="10.00" fill="#ffffff">youtubeDataKeys</text>
</g>
<!-- website_youtube_dl_common_youtubeDataKeys&#45;&gt;website_youtube_dl_common_easyID3Manager -->
<g id="edge29" class="edge">
<title>website_youtube_dl_common_youtubeDataKeys&#45;&gt;website_youtube_dl_common_easyID3Manager</title><style>.edge>path:hover{stroke-width:8}</style>
<path fill="none" stroke="black" d="M1365.84,-500.94C1378.37,-490.56 1392.96,-478.47 1406.21,-467.49"/>
<polygon fill="#5a22e7" stroke="black" points="1408.79,-469.89 1414.26,-460.82 1404.33,-464.5 1408.79,-469.89"/>
</g>
<!-- website_youtube_dl_common_youtubeDataKeys&#45;&gt;website_youtube_dl_common_youtubeDL -->
<g id="edge30" class="edge">
<title>website_youtube_dl_common_youtubeDataKeys&#45;&gt;website_youtube_dl_common_youtubeDL</title><style>.edge>path:hover{stroke-width:8}</style>
<path fill="none" stroke="black" d="M1334.63,-498.57C1334.63,-464.03 1334.63,-405.86 1334.63,-370.64"/>
<polygon fill="#5a22e7" stroke="black" points="1338.13,-370.49 1334.63,-360.49 1331.13,-370.49 1338.13,-370.49"/>
</g>
<!-- website_youtube_dl_common_youtubeDataKeys&#45;&gt;website_youtube_dl_flaskAPI_emits -->
<g id="edge31" class="edge">
<title>website_youtube_dl_common_youtubeDataKeys&#45;&gt;website_youtube_dl_flaskAPI_emits</title><style>.edge>path:hover{stroke-width:8}</style>
<path fill="none" stroke="black" d="M1252.48,-524.24C1072.61,-518.01 648.99,-499.79 510.63,-462.82 429.8,-441.23 343.49,-394.56 294.58,-365.62"/>
<polygon fill="#5a22e7" stroke="black" points="296.27,-362.55 285.89,-360.43 292.68,-368.56 296.27,-362.55"/>
</g>
<!-- website_youtube_dl_common_youtubeDataKeys&#45;&gt;website_youtube_dl_flaskAPI_youtube -->
<g id="edge32" class="edge">
<title>website_youtube_dl_common_youtubeDataKeys&#45;&gt;website_youtube_dl_flaskAPI_youtube</title><style>.edge>path:hover{stroke-width:8}</style>
<path fill="none" stroke="black" d="M1252.76,-523.03C1103.7,-515.37 800.12,-495.88 765.63,-462.82 726.01,-424.86 792.88,-370.36 746.63,-340.84"/>
</g>
<!-- website_youtube_dl_common_youtubeDL&#45;&gt;website_youtube_dl_flaskAPI_youtubeHelper -->
<g id="edge33" class="edge">
<title>website_youtube_dl_common_youtubeDL&#45;&gt;website_youtube_dl_flaskAPI_youtubeHelper</title><style>.edge>path:hover{stroke-width:8}</style>
<path fill="none" stroke="black" d="M1341.33,-319.29C1346.42,-300.44 1350.19,-272.35 1334.63,-255.35"/>
</g>
<!-- website_youtube_dl_common_youtubeLogKeys -->
<g id="node19" class="node">
<title>website_youtube_dl_common_youtubeLogKeys</title><style>.edge>path:hover{stroke-width:8}</style>
<ellipse fill="#653bce" stroke="black" cx="857.63" cy="-433.83" rx="82.96" ry="28.98"/>
<text text-anchor="middle" x="857.63" y="-442.33" font-family="Helvetica,sans-Serif" font-size="10.00" fill="#ffffff">website_youtube_dl.</text>
<text text-anchor="middle" x="857.63" y="-431.33" font-family="Helvetica,sans-Serif" font-size="10.00" fill="#ffffff">common.</text>
<text text-anchor="middle" x="857.63" y="-420.33" font-family="Helvetica,sans-Serif" font-size="10.00" fill="#ffffff">youtubeLogKeys</text>
</g>
<!-- website_youtube_dl_common_youtubeLogKeys&#45;&gt;website_youtube_dl_flaskAPI_youtube -->
<g id="edge34" class="edge">
<title>website_youtube_dl_common_youtubeLogKeys&#45;&gt;website_youtube_dl_flaskAPI_youtube</title><style>.edge>path:hover{stroke-width:8}</style>
<path fill="none" stroke="black" d="M829.47,-406.14C807.89,-386.54 776.8,-360.1 746.63,-340.84"/>
</g>
<!-- website_youtube_dl_common_youtubeLogKeys&#45;&gt;website_youtube_dl_flaskAPI_youtubeHelper -->
<g id="edge35" class="edge">
<title>website_youtube_dl_common_youtubeLogKeys&#45;&gt;website_youtube_dl_flaskAPI_youtubeHelper</title><style>.edge>path:hover{stroke-width:8}</style>
<path fill="none" stroke="black" d="M917.62,-413.56C927.92,-410.49 938.55,-407.46 948.63,-404.84 1080.14,-370.61 1143.33,-427.97 1247.63,-340.84"/>
<path fill="none" stroke="black" d="M1247.63,-338.84C1259.16,-329.2 1256.47,-321.94 1266.63,-310.85 1292.97,-282.08 1360.96,-284.13 1334.63,-255.35"/>
<path fill="none" stroke="black" d="M1334.63,-253.35C1281.01,-194.78 731.31,-181.83 535.46,-179.07"/>
<polygon fill="#653bce" stroke="black" points="535.34,-175.57 525.29,-178.93 535.24,-182.57 535.34,-175.57"/>
</g>
<!-- website_youtube_dl_common_youtubeOptions -->
<g id="node20" class="node">
<title>website_youtube_dl_common_youtubeOptions</title><style>.edge>path:hover{stroke-width:8}</style>
<ellipse fill="#6a47c2" stroke="black" cx="1223.63" cy="-433.83" rx="82.96" ry="28.98"/>
<text text-anchor="middle" x="1223.63" y="-442.33" font-family="Helvetica,sans-Serif" font-size="10.00" fill="#ffffff">website_youtube_dl.</text>
<text text-anchor="middle" x="1223.63" y="-431.33" font-family="Helvetica,sans-Serif" font-size="10.00" fill="#ffffff">common.</text>
<text text-anchor="middle" x="1223.63" y="-420.33" font-family="Helvetica,sans-Serif" font-size="10.00" fill="#ffffff">youtubeOptions</text>
</g>
<!-- website_youtube_dl_common_youtubeOptions&#45;&gt;website_youtube_dl_common_youtubeDL -->
<g id="edge36" class="edge">
<title>website_youtube_dl_common_youtubeOptions&#45;&gt;website_youtube_dl_common_youtubeDL</title><style>.edge>path:hover{stroke-width:8}</style>
<path fill="none" stroke="black" d="M1254.84,-406.96C1269.88,-394.5 1287.89,-379.58 1302.98,-367.07"/>
<polygon fill="#6a47c2" stroke="black" points="1305.57,-369.47 1311.03,-360.39 1301.1,-364.08 1305.57,-369.47"/>
</g>
<!-- website_youtube_dl_config -->
<g id="node21" class="node">
<title>website_youtube_dl_config</title><style>.edge>path:hover{stroke-width:8}</style>
<ellipse fill="#653bce" stroke="black" cx="1570.63" cy="-99.64" rx="82.96" ry="21.43"/>
<text text-anchor="middle" x="1570.63" y="-102.64" font-family="Helvetica,sans-Serif" font-size="10.00" fill="#ffffff">website_youtube_dl.</text>
<text text-anchor="middle" x="1570.63" y="-91.64" font-family="Helvetica,sans-Serif" font-size="10.00" fill="#ffffff">config</text>
</g>
<!-- website_youtube_dl_config&#45;&gt;website_youtube_dl -->
<g id="edge37" class="edge">
<title>website_youtube_dl_config&#45;&gt;website_youtube_dl</title><style>.edge>path:hover{stroke-width:8}</style>
<path fill="none" stroke="black" d="M1511.36,-84.81C1498.95,-82.33 1485.91,-80.03 1473.63,-78.43 1109.47,-30.9 668.39,-23.41 502.76,-22.34"/>
<polygon fill="#653bce" stroke="black" points="502.75,-18.84 492.72,-22.28 502.7,-25.84 502.75,-18.84"/>
</g>
<!-- website_youtube_dl_youtube_dl_run -->
<g id="node29" class="node">
<title>website_youtube_dl_youtube_dl_run</title><style>.edge>path:hover{stroke-width:8}</style>
<ellipse fill="#6549ac" stroke="black" cx="1570.63" cy="-21.21" rx="82.96" ry="21.43"/>
<text text-anchor="middle" x="1570.63" y="-24.21" font-family="Helvetica,sans-Serif" font-size="10.00" fill="#ffffff">website_youtube_dl.</text>
<text text-anchor="middle" x="1570.63" y="-13.21" font-family="Helvetica,sans-Serif" font-size="10.00" fill="#ffffff">youtube_dl_run</text>
</g>
<!-- website_youtube_dl_config&#45;&gt;website_youtube_dl_youtube_dl_run -->
<g id="edge38" class="edge">
<title>website_youtube_dl_config&#45;&gt;website_youtube_dl_youtube_dl_run</title><style>.edge>path:hover{stroke-width:8}</style>
<path fill="none" stroke="black" d="M1570.63,-78.16C1570.63,-70.3 1570.63,-61.16 1570.63,-52.57"/>
<polygon fill="#653bce" stroke="black" points="1574.13,-52.49 1570.63,-42.49 1567.13,-52.49 1574.13,-52.49"/>
</g>
<!-- website_youtube_dl_flaskAPI -->
<g id="node22" class="node">
<title>website_youtube_dl_flaskAPI</title><style>.edge>path:hover{stroke-width:8}</style>
<ellipse fill="#6a47c2" stroke="black" cx="490.63" cy="-99.64" rx="82.96" ry="21.43"/>
<text text-anchor="middle" x="490.63" y="-102.64" font-family="Helvetica,sans-Serif" font-size="10.00" fill="#ffffff">website_youtube_dl.</text>
<text text-anchor="middle" x="490.63" y="-91.64" font-family="Helvetica,sans-Serif" font-size="10.00" fill="#ffffff">flaskAPI</text>
</g>
<!-- website_youtube_dl_flaskAPI&#45;&gt;website_youtube_dl -->
<g id="edge39" class="edge">
<title>website_youtube_dl_flaskAPI&#45;&gt;website_youtube_dl</title><style>.edge>path:hover{stroke-width:8}</style>
<path fill="none" stroke="black" d="M476.17,-78.56C469.38,-69.12 461.2,-57.76 453.98,-47.71"/>
<polygon fill="#6a47c2" stroke="black" points="456.61,-45.38 447.93,-39.31 450.93,-49.47 456.61,-45.38"/>
</g>
<!-- website_youtube_dl_flaskAPI_emits&#45;&gt;website_youtube_dl_flaskAPI_youtube -->
<g id="edge40" class="edge">
<title>website_youtube_dl_flaskAPI_emits&#45;&gt;website_youtube_dl_flaskAPI_youtube</title><style>.edge>path:hover{stroke-width:8}</style>
<path fill="none" stroke="black" d="M283.93,-319.27C301.13,-307.79 323.04,-293.15 341.56,-280.78"/>
<polygon fill="blue" stroke="black" points="343.7,-283.56 350.07,-275.09 339.81,-277.74 343.7,-283.56"/>
</g>
<!-- website_youtube_dl_flaskAPI_emits&#45;&gt;website_youtube_dl_flaskAPI_youtubeModifyPlaylist -->
<g id="edge41" class="edge">
<title>website_youtube_dl_flaskAPI_emits&#45;&gt;website_youtube_dl_flaskAPI_youtubeModifyPlaylist</title><style>.edge>path:hover{stroke-width:8}</style>
<path fill="none" stroke="black" d="M254.63,-319.16C254.63,-291.49 254.63,-240.84 254.63,-208.43"/>
<polygon fill="blue" stroke="black" points="258.13,-208.19 254.63,-198.19 251.13,-208.19 258.13,-208.19"/>
</g>
<!-- website_youtube_dl_flaskAPI_flaskMedia -->
<g id="node24" class="node">
<title>website_youtube_dl_flaskAPI_flaskMedia</title><style>.edge>path:hover{stroke-width:8}</style>
<ellipse fill="#6a47c2" stroke="black" cx="635.63" cy="-339.84" rx="82.96" ry="28.98"/>
<text text-anchor="middle" x="635.63" y="-348.34" font-family="Helvetica,sans-Serif" font-size="10.00" fill="#ffffff">website_youtube_dl.</text>
<text text-anchor="middle" x="635.63" y="-337.34" font-family="Helvetica,sans-Serif" font-size="10.00" fill="#ffffff">flaskAPI.</text>
<text text-anchor="middle" x="635.63" y="-326.34" font-family="Helvetica,sans-Serif" font-size="10.00" fill="#ffffff">flaskMedia</text>
</g>
<!-- website_youtube_dl_flaskAPI_flaskMedia&#45;&gt;website_youtube_dl_flaskAPI_youtube -->
<g id="edge42" class="edge">
<title>website_youtube_dl_flaskAPI_flaskMedia&#45;&gt;website_youtube_dl_flaskAPI_youtube</title><style>.edge>path:hover{stroke-width:8}</style>
<path fill="none" stroke="black" d="M576.25,-319.48C537.91,-306.97 487.9,-290.66 447.91,-277.62"/>
<polygon fill="#6a47c2" stroke="black" points="448.83,-274.24 438.24,-274.47 446.66,-280.9 448.83,-274.24"/>
</g>
<!-- website_youtube_dl_flaskAPI_session&#45;&gt;website_youtube_dl -->
<g id="edge43" class="edge">
<title>website_youtube_dl_flaskAPI_session&#45;&gt;website_youtube_dl</title><style>.edge>path:hover{stroke-width:8}</style>
<path fill="none" stroke="black" d="M292.63,-253.35C276.38,-204.95 366.64,-227.73 379.63,-178.35"/>
<path fill="none" stroke="black" d="M379.63,-176.35C388.18,-143.81 377.78,-134.24 379.63,-100.64"/>
<path fill="none" stroke="black" d="M379.63,-98.64C380.73,-78.55 393.57,-60.2 406.67,-46.53"/>
<polygon fill="#5926d9" stroke="black" points="409.22,-48.93 413.91,-39.43 404.32,-43.93 409.22,-48.93"/>
</g>
<!-- website_youtube_dl_flaskAPI_session&#45;&gt;website_youtube_dl_flaskAPI_youtube -->
<g id="edge44" class="edge">
<title>website_youtube_dl_flaskAPI_session&#45;&gt;website_youtube_dl_flaskAPI_youtube</title><style>.edge>path:hover{stroke-width:8}</style>
<path fill="none" stroke="black" d="M402.3,-311.04C398.79,-302.43 394.92,-292.91 391.38,-284.23"/>
<polygon fill="#5926d9" stroke="black" points="394.58,-282.8 387.57,-274.86 388.1,-285.44 394.58,-282.8"/>
</g>
<!-- website_youtube_dl_flaskAPI_session&#45;&gt;website_youtube_dl_flaskAPI_youtubeModifyPlaylist -->
<g id="edge45" class="edge">
<title>website_youtube_dl_flaskAPI_session&#45;&gt;website_youtube_dl_flaskAPI_youtubeModifyPlaylist</title><style>.edge>path:hover{stroke-width:8}</style>
<path fill="none" stroke="black" d="M357.34,-318.59C330.71,-305.38 302.57,-284.99 292.63,-255.35"/>
<path fill="none" stroke="black" d="M292.63,-253.35C287.27,-237.39 279.02,-220.58 271.58,-206.93"/>
<polygon fill="#5926d9" stroke="black" points="274.54,-205.05 266.6,-198.03 268.43,-208.47 274.54,-205.05"/>
</g>
<!-- website_youtube_dl_flaskAPI_youtube&#45;&gt;website_youtube_dl -->
<g id="edge46" class="edge">
<title>website_youtube_dl_flaskAPI_youtube&#45;&gt;website_youtube_dl</title><style>.edge>path:hover{stroke-width:8}</style>
<path fill="none" stroke="black" d="M376.92,-233.58C375.46,-218.25 374.82,-196.61 379.63,-178.35"/>
</g>
<!-- website_youtube_dl_flaskAPI_youtube&#45;&gt;website_youtube_dl_flaskAPI_youtubeModifyPlaylist -->
<g id="edge47" class="edge">
<title>website_youtube_dl_flaskAPI_youtube&#45;&gt;website_youtube_dl_flaskAPI_youtubeModifyPlaylist</title><style>.edge>path:hover{stroke-width:8}</style>
<path fill="none" stroke="black" d="M347.11,-233.84C331.61,-224.54 312.88,-213.3 296.34,-203.38"/>
<polygon fill="blue" stroke="black" points="297.79,-200.17 287.41,-198.03 294.19,-206.17 297.79,-200.17"/>
</g>
<!-- website_youtube_dl_flaskAPI_youtubeHelper&#45;&gt;website_youtube_dl -->
<g id="edge48" class="edge">
<title>website_youtube_dl_flaskAPI_youtubeHelper&#45;&gt;website_youtube_dl</title><style>.edge>path:hover{stroke-width:8}</style>
<path fill="none" stroke="black" d="M420.52,-156.8C398.96,-144.27 378.25,-125.63 379.63,-100.64"/>
</g>
<!-- website_youtube_dl_flaskAPI_youtubeModifyPlaylist&#45;&gt;website_youtube_dl -->
<g id="edge49" class="edge">
<title>website_youtube_dl_flaskAPI_youtubeModifyPlaylist&#45;&gt;website_youtube_dl</title><style>.edge>path:hover{stroke-width:8}</style>
<path fill="none" stroke="black" d="M191.99,-163.98C155.49,-153.13 118.61,-133.74 129.63,-100.64"/>
</g>
<!-- yt_dlp -->
<g id="node30" class="node">
<title>yt_dlp</title><style>.edge>path:hover{stroke-width:8}</style>
<ellipse fill="#b653a8" stroke="black" cx="1556.63" cy="-610.8" rx="27.84" ry="18"/>
<text text-anchor="middle" x="1556.63" y="-608.3" font-family="Helvetica,sans-Serif" font-size="10.00" fill="#ffffff">yt_dlp</text>
</g>
<!-- yt_dlp&#45;&gt;website_youtube_dl_common_youtubeDL -->
<g id="edge50" class="edge">
<title>yt_dlp&#45;&gt;website_youtube_dl_common_youtubeDL</title><style>.edge>path:hover{stroke-width:8}</style>
<path fill="none" stroke="black" d="M1560.82,-592.83C1569.21,-554.39 1583.59,-459.8 1537.63,-404.84 1499.16,-358.85 1464.57,-387.59 1407.63,-368.84 1403.03,-367.32 1398.3,-365.69 1393.57,-364"/>
<polygon fill="#b653a8" stroke="black" points="1394.47,-360.6 1383.87,-360.46 1392.07,-367.18 1394.47,-360.6"/>
</g>
</g>
</svg>
