<?xml version="1.0" encoding="UTF-8" standalone="no"?>
<!DOCTYPE svg PUBLIC "-//W3C//DTD SVG 1.1//EN"
 "http://www.w3.org/Graphics/SVG/1.1/DTD/svg11.dtd">
<!-- Generated by graphviz version 2.43.0 (0)
 -->
<!-- Title: G Pages: 1 -->
<svg width="1156pt" height="881pt"
 viewBox="0.00 0.00 1156.17 881.21" xmlns="http://www.w3.org/2000/svg" xmlns:xlink="http://www.w3.org/1999/xlink">
<g id="graph0" class="graph" transform="scale(1 1) rotate(0) translate(4 877.21)">
<title>G</title><style>.edge>path:hover{stroke-width:8}</style>
<polygon fill="white" stroke="transparent" points="-4,4 -4,-877.21 1152.17,-877.21 1152.17,4 -4,4"/>
<!-- flask -->
<g id="node1" class="node">
<title>flask</title><style>.edge>path:hover{stroke-width:8}</style>
<ellipse fill="#f30c0c" stroke="black" cx="544.44" cy="-852" rx="27" ry="18"/>
<text text-anchor="middle" x="544.44" y="-849.5" font-family="Helvetica,sans-Serif" font-size="10.00" fill="#ffffff">flask</text>
</g>
<!-- flask_socketio -->
<g id="node3" class="node">
<title>flask_socketio</title><style>.edge>path:hover{stroke-width:8}</style>
<ellipse fill="#64c040" stroke="black" cx="795.44" cy="-776.78" rx="50.75" ry="18"/>
<text text-anchor="middle" x="795.44" y="-774.28" font-family="Helvetica,sans-Serif" font-size="10.00" fill="#000000">flask_socketio</text>
</g>
<!-- flask&#45;&gt;flask_socketio -->
<g id="edge1" class="edge">
<title>flask&#45;&gt;flask_socketio</title><style>.edge>path:hover{stroke-width:8}</style>
<path fill="none" stroke="black" d="M568.96,-843.84C610.22,-831.81 694.21,-807.31 747.5,-791.77"/>
<polygon fill="#f30c0c" stroke="black" points="748.78,-795.04 757.4,-788.88 746.82,-788.32 748.78,-795.04"/>
</g>
<!-- website_youtube_dl -->
<g id="node8" class="node">
<title>website_youtube_dl</title><style>.edge>path:hover{stroke-width:8}</style>
<polygon fill="blue" stroke="black" points="765.44,-39.21 651.44,-39.21 651.44,-3.21 765.44,-3.21 765.44,-39.21"/>
<text text-anchor="middle" x="708.44" y="-18.71" font-family="Helvetica,sans-Serif" font-size="10.00" fill="white">website_youtube_dl</text>
</g>
<!-- flask&#45;&gt;website_youtube_dl -->
<g id="edge2" class="edge">
<title>flask&#45;&gt;website_youtube_dl</title><style>.edge>path:hover{stroke-width:8}</style>
<path fill="none" stroke="black" d="M517.43,-850.11C467.33,-847.47 357.78,-836.91 277.44,-794.78 256.83,-783.98 256.66,-774.43 239.44,-758.78 138.23,-666.87 64.08,-681.23 7.44,-556.8 -3.24,-533.35 -1.41,-523.02 7.44,-498.82 20.21,-463.87 51.82,-470.78 61.44,-434.83"/>
<path fill="none" stroke="black" d="M61.44,-432.83C70.39,-389.51 24.98,-385.05 23.44,-340.84"/>
<path fill="none" stroke="black" d="M23.44,-338.84C21.06,-270.98 75.67,-267.88 134.44,-233.85 237.26,-174.31 275.88,-188.38 390.44,-156.85 454.04,-139.35 477.54,-154.24 534.44,-120.85 545.07,-114.61 542.57,-106.47 553.44,-100.64"/>
<path fill="none" stroke="black" d="M553.44,-98.64C588.21,-78.11 629.25,-58.04 660.37,-43.63"/>
<polygon fill="#f30c0c" stroke="black" points="662.07,-46.7 669.69,-39.34 659.14,-40.34 662.07,-46.7"/>
</g>
<!-- website_youtube_dl_flaskAPI_session -->
<g id="node22" class="node">
<title>website_youtube_dl_flaskAPI_session</title><style>.edge>path:hover{stroke-width:8}</style>
<ellipse fill="#5926d9" stroke="black" cx="529.44" cy="-339.84" rx="82.96" ry="28.98"/>
<text text-anchor="middle" x="529.44" y="-348.34" font-family="Helvetica,sans-Serif" font-size="10.00" fill="#ffffff">website_youtube_dl.</text>
<text text-anchor="middle" x="529.44" y="-337.34" font-family="Helvetica,sans-Serif" font-size="10.00" fill="#ffffff">flaskAPI.</text>
<text text-anchor="middle" x="529.44" y="-326.34" font-family="Helvetica,sans-Serif" font-size="10.00" fill="#ffffff">session</text>
</g>
<!-- flask&#45;&gt;website_youtube_dl_flaskAPI_session -->
<g id="edge3" class="edge">
<title>flask&#45;&gt;website_youtube_dl_flaskAPI_session</title><style>.edge>path:hover{stroke-width:8}</style>
<path fill="none" stroke="black" d="M544.44,-775.78C524.45,-717.53 531.96,-556.16 554.44,-498.82 562.14,-479.16 578.09,-482.61 585.44,-462.82 594.4,-438.66 594.5,-428.96 585.44,-404.84 581.3,-393.83 574.31,-383.47 566.65,-374.43"/>
<polygon fill="#f30c0c" stroke="black" points="569.1,-371.92 559.8,-366.84 563.91,-376.61 569.1,-371.92"/>
</g>
<!-- website_youtube_dl_flaskAPI_youtube -->
<g id="node23" class="node">
<title>website_youtube_dl_flaskAPI_youtube</title><style>.edge>path:hover{stroke-width:8}</style>
<polygon fill="blue" stroke="black" points="428.94,-274.85 311.94,-274.85 311.94,-233.85 428.94,-233.85 428.94,-274.85"/>
<text text-anchor="middle" x="370.44" y="-262.85" font-family="Helvetica,sans-Serif" font-size="10.00" fill="white">website_youtube_dl.</text>
<text text-anchor="middle" x="370.44" y="-251.85" font-family="Helvetica,sans-Serif" font-size="10.00" fill="white">flaskAPI.</text>
<text text-anchor="middle" x="370.44" y="-240.85" font-family="Helvetica,sans-Serif" font-size="10.00" fill="white">youtube</text>
</g>
<!-- flask&#45;&gt;website_youtube_dl_flaskAPI_youtube -->
<g id="edge4" class="edge">
<title>flask&#45;&gt;website_youtube_dl_flaskAPI_youtube</title><style>.edge>path:hover{stroke-width:8}</style>
<path fill="none" stroke="black" d="M547.69,-833.85C549.82,-818.63 551.13,-796.04 544.44,-777.78"/>
<path fill="none" stroke="black" d="M544.44,-775.78C528.06,-731.12 478.71,-761.77 451.44,-722.78 393.56,-640.06 482.15,-572.79 413.44,-498.82 367.95,-449.85 322.29,-501 267.44,-462.82 255.1,-454.23 256.15,-447.74 248.44,-434.83"/>
</g>
<!-- website_youtube_dl_flaskAPI_youtubeModifyPlaylist -->
<g id="node24" class="node">
<title>website_youtube_dl_flaskAPI_youtubeModifyPlaylist</title><style>.edge>path:hover{stroke-width:8}</style>
<polygon fill="blue" stroke="black" points="524.94,-197.85 399.94,-197.85 399.94,-156.85 524.94,-156.85 524.94,-197.85"/>
<text text-anchor="middle" x="462.44" y="-185.85" font-family="Helvetica,sans-Serif" font-size="10.00" fill="white">website_youtube_dl.</text>
<text text-anchor="middle" x="462.44" y="-174.85" font-family="Helvetica,sans-Serif" font-size="10.00" fill="white">flaskAPI.</text>
<text text-anchor="middle" x="462.44" y="-163.85" font-family="Helvetica,sans-Serif" font-size="10.00" fill="white">youtubeModifyPlaylist</text>
</g>
<!-- flask&#45;&gt;website_youtube_dl_flaskAPI_youtubeModifyPlaylist -->
<g id="edge5" class="edge">
<title>flask&#45;&gt;website_youtube_dl_flaskAPI_youtubeModifyPlaylist</title><style>.edge>path:hover{stroke-width:8}</style>
<path fill="none" stroke="black" d="M61.44,-432.83C73.97,-379.41 53.16,-358.45 80.44,-310.85 99.83,-277.01 117.87,-279.59 148.44,-255.35"/>
<path fill="none" stroke="black" d="M148.44,-253.35C184.49,-223.05 308.53,-200.21 389.5,-188.1"/>
<polygon fill="#f30c0c" stroke="black" points="390.26,-191.52 399.64,-186.6 389.24,-184.6 390.26,-191.52"/>
</g>
<!-- flask_session -->
<g id="node2" class="node">
<title>flask_session</title><style>.edge>path:hover{stroke-width:8}</style>
<ellipse fill="#b6a853" stroke="black" cx="477.44" cy="-99.64" rx="48.04" ry="18"/>
<text text-anchor="middle" x="477.44" y="-97.14" font-family="Helvetica,sans-Serif" font-size="10.00" fill="#000000">flask_session</text>
</g>
<!-- flask_session&#45;&gt;website_youtube_dl -->
<g id="edge6" class="edge">
<title>flask_session&#45;&gt;website_youtube_dl</title><style>.edge>path:hover{stroke-width:8}</style>
<path fill="none" stroke="black" d="M512.27,-87.12C548.01,-75.29 604.33,-56.66 647.47,-42.38"/>
<polygon fill="#b6a853" stroke="black" points="648.63,-45.69 657.02,-39.22 646.43,-39.04 648.63,-45.69"/>
</g>
<!-- flask_socketio&#45;&gt;website_youtube_dl -->
<g id="edge7" class="edge">
<title>flask_socketio&#45;&gt;website_youtube_dl</title><style>.edge>path:hover{stroke-width:8}</style>
<path fill="none" stroke="black" d="M843.44,-703.78C856.02,-658.3 910.75,-691 935.44,-650.78 970.8,-593.2 973.01,-558.02 940.44,-498.82 914.82,-452.26 835.8,-487.84 839.44,-434.83"/>
</g>
<!-- website_youtube_dl_common_myLogger -->
<g id="node13" class="node">
<title>website_youtube_dl_common_myLogger</title><style>.edge>path:hover{stroke-width:8}</style>
<ellipse fill="#5f33cc" stroke="black" cx="646.44" cy="-527.81" rx="82.96" ry="28.98"/>
<text text-anchor="middle" x="646.44" y="-536.31" font-family="Helvetica,sans-Serif" font-size="10.00" fill="#ffffff">website_youtube_dl.</text>
<text text-anchor="middle" x="646.44" y="-525.31" font-family="Helvetica,sans-Serif" font-size="10.00" fill="#ffffff">common.</text>
<text text-anchor="middle" x="646.44" y="-514.31" font-family="Helvetica,sans-Serif" font-size="10.00" fill="#ffffff">myLogger</text>
</g>
<!-- flask_socketio&#45;&gt;website_youtube_dl_common_myLogger -->
<g id="edge8" class="edge">
<title>flask_socketio&#45;&gt;website_youtube_dl_common_myLogger</title><style>.edge>path:hover{stroke-width:8}</style>
<path fill="none" stroke="black" d="M810.95,-759.52C822.47,-746.25 837.2,-726.37 843.44,-705.78"/>
<path fill="none" stroke="black" d="M843.44,-703.78C857.11,-658.62 787.79,-680.87 751.44,-650.78 720.75,-625.39 691.67,-590.45 671.94,-564.47"/>
<polygon fill="#64c040" stroke="black" points="674.66,-562.27 665.87,-556.37 669.06,-566.47 674.66,-562.27"/>
</g>
<!-- mutagen -->
<g id="node4" class="node">
<title>mutagen</title><style>.edge>path:hover{stroke-width:8}</style>
<ellipse fill="#26d98c" stroke="black" cx="321.44" cy="-776.78" rx="35.14" ry="18"/>
<text text-anchor="middle" x="321.44" y="-774.28" font-family="Helvetica,sans-Serif" font-size="10.00" fill="#000000">mutagen</text>
</g>
<!-- website_youtube_dl_common_easyID3Manager -->
<g id="node11" class="node">
<title>website_youtube_dl_common_easyID3Manager</title><style>.edge>path:hover{stroke-width:8}</style>
<ellipse fill="#532db4" stroke="black" cx="321.44" cy="-527.81" rx="82.96" ry="28.98"/>
<text text-anchor="middle" x="321.44" y="-536.31" font-family="Helvetica,sans-Serif" font-size="10.00" fill="#ffffff">website_youtube_dl.</text>
<text text-anchor="middle" x="321.44" y="-525.31" font-family="Helvetica,sans-Serif" font-size="10.00" fill="#ffffff">common.</text>
<text text-anchor="middle" x="321.44" y="-514.31" font-family="Helvetica,sans-Serif" font-size="10.00" fill="#ffffff">easyID3Manager</text>
</g>
<!-- mutagen&#45;&gt;website_youtube_dl_common_easyID3Manager -->
<g id="edge9" class="edge">
<title>mutagen&#45;&gt;website_youtube_dl_common_easyID3Manager</title><style>.edge>path:hover{stroke-width:8}</style>
<path fill="none" stroke="black" d="M317.94,-758.69C315.75,-744.08 314.5,-722.77 321.44,-705.78"/>
</g>
<!-- mutagen_easyid3 -->
<g id="node5" class="node">
<title>mutagen_easyid3</title><style>.edge>path:hover{stroke-width:8}</style>
<ellipse fill="#40c089" stroke="black" cx="141.44" cy="-852" rx="44.6" ry="21.43"/>
<text text-anchor="middle" x="141.44" y="-855" font-family="Helvetica,sans-Serif" font-size="10.00" fill="#000000">mutagen.</text>
<text text-anchor="middle" x="141.44" y="-844" font-family="Helvetica,sans-Serif" font-size="10.00" fill="#000000">easyid3</text>
</g>
<!-- mutagen_mp3 -->
<g id="node6" class="node">
<title>mutagen_mp3</title><style>.edge>path:hover{stroke-width:8}</style>
<ellipse fill="#49ac81" stroke="black" cx="180.44" cy="-776.78" rx="50.07" ry="18"/>
<text text-anchor="middle" x="180.44" y="-774.28" font-family="Helvetica,sans-Serif" font-size="10.00" fill="#000000">mutagen.mp3</text>
</g>
<!-- mutagen_easyid3&#45;&gt;mutagen_mp3 -->
<g id="edge10" class="edge">
<title>mutagen_easyid3&#45;&gt;mutagen_mp3</title><style>.edge>path:hover{stroke-width:8}</style>
<path fill="none" stroke="black" d="M152.09,-830.99C156.58,-822.57 161.86,-812.66 166.64,-803.69"/>
<polygon fill="#40c089" stroke="black" points="169.77,-805.26 171.38,-794.79 163.59,-801.97 169.77,-805.26"/>
</g>
<!-- mutagen_easyid3&#45;&gt;website_youtube_dl_common_easyID3Manager -->
<g id="edge11" class="edge">
<title>mutagen_easyid3&#45;&gt;website_youtube_dl_common_easyID3Manager</title><style>.edge>path:hover{stroke-width:8}</style>
<path fill="none" stroke="black" d="M129.65,-831.44C119.54,-811.9 108.49,-781.58 121.44,-758.78 174.51,-665.31 281.21,-722.47 321.44,-622.79"/>
<path fill="none" stroke="black" d="M321.44,-620.79C326.97,-603.68 327.64,-583.82 326.65,-566.95"/>
<polygon fill="#40c089" stroke="black" points="330.13,-566.56 325.84,-556.87 323.15,-567.12 330.13,-566.56"/>
</g>
<!-- mutagen_mp3&#45;&gt;website_youtube_dl_common_easyID3Manager -->
<g id="edge12" class="edge">
<title>mutagen_mp3&#45;&gt;website_youtube_dl_common_easyID3Manager</title><style>.edge>path:hover{stroke-width:8}</style>
<path fill="none" stroke="black" d="M225.68,-769.08C260.81,-761.01 306.05,-743.49 321.44,-705.78"/>
<path fill="none" stroke="black" d="M321.44,-703.78C335.04,-670.46 307.97,-656.17 321.44,-622.79"/>
</g>
<!-- simplegmail -->
<g id="node7" class="node">
<title>simplegmail</title><style>.edge>path:hover{stroke-width:8}</style>
<ellipse fill="#4089c0" stroke="black" cx="1065.44" cy="-852" rx="45.15" ry="18"/>
<text text-anchor="middle" x="1065.44" y="-849.5" font-family="Helvetica,sans-Serif" font-size="10.00" fill="#ffffff">simplegmail</text>
</g>
<!-- website_youtube_dl_common_mailManager -->
<g id="node12" class="node">
<title>website_youtube_dl_common_mailManager</title><style>.edge>path:hover{stroke-width:8}</style>
<ellipse fill="#6a4cb3" stroke="black" cx="1065.44" cy="-621.79" rx="82.96" ry="28.98"/>
<text text-anchor="middle" x="1065.44" y="-630.29" font-family="Helvetica,sans-Serif" font-size="10.00" fill="#ffffff">website_youtube_dl.</text>
<text text-anchor="middle" x="1065.44" y="-619.29" font-family="Helvetica,sans-Serif" font-size="10.00" fill="#ffffff">common.</text>
<text text-anchor="middle" x="1065.44" y="-608.29" font-family="Helvetica,sans-Serif" font-size="10.00" fill="#ffffff">mailManager</text>
</g>
<!-- simplegmail&#45;&gt;website_youtube_dl_common_mailManager -->
<g id="edge13" class="edge">
<title>simplegmail&#45;&gt;website_youtube_dl_common_mailManager</title><style>.edge>path:hover{stroke-width:8}</style>
<path fill="none" stroke="black" d="M1065.44,-833.84C1065.44,-797.36 1065.44,-711.3 1065.44,-661.07"/>
<polygon fill="#4089c0" stroke="black" points="1068.94,-660.92 1065.44,-650.92 1061.94,-660.92 1068.94,-660.92"/>
</g>
<!-- website_youtube_dl_common -->
<g id="node9" class="node">
<title>website_youtube_dl_common</title><style>.edge>path:hover{stroke-width:8}</style>
<ellipse fill="#5a22e7" stroke="black" cx="99.44" cy="-527.81" rx="82.96" ry="21.43"/>
<text text-anchor="middle" x="99.44" y="-530.81" font-family="Helvetica,sans-Serif" font-size="10.00" fill="#ffffff">website_youtube_dl.</text>
<text text-anchor="middle" x="99.44" y="-519.81" font-family="Helvetica,sans-Serif" font-size="10.00" fill="#ffffff">common</text>
</g>
<!-- website_youtube_dl_common&#45;&gt;website_youtube_dl -->
<g id="edge14" class="edge">
<title>website_youtube_dl_common&#45;&gt;website_youtube_dl</title><style>.edge>path:hover{stroke-width:8}</style>
<path fill="none" stroke="black" d="M97.32,-506.52C95.85,-487.75 94.9,-459.16 99.44,-434.83"/>
<path fill="none" stroke="black" d="M99.44,-432.83C109.16,-380.7 25.29,-393.84 23.44,-340.84"/>
</g>
<!-- website_youtube_dl_flaskAPI_emits -->
<g id="node20" class="node">
<title>website_youtube_dl_flaskAPI_emits</title><style>.edge>path:hover{stroke-width:8}</style>
<polygon fill="blue" stroke="black" points="206.94,-360.34 89.94,-360.34 89.94,-319.34 206.94,-319.34 206.94,-360.34"/>
<text text-anchor="middle" x="148.44" y="-348.34" font-family="Helvetica,sans-Serif" font-size="10.00" fill="white">website_youtube_dl.</text>
<text text-anchor="middle" x="148.44" y="-337.34" font-family="Helvetica,sans-Serif" font-size="10.00" fill="white">flaskAPI.</text>
<text text-anchor="middle" x="148.44" y="-326.34" font-family="Helvetica,sans-Serif" font-size="10.00" fill="white">emits</text>
</g>
<!-- website_youtube_dl_common&#45;&gt;website_youtube_dl_flaskAPI_emits -->
<g id="edge15" class="edge">
<title>website_youtube_dl_common&#45;&gt;website_youtube_dl_flaskAPI_emits</title><style>.edge>path:hover{stroke-width:8}</style>
<path fill="none" stroke="black" d="M99.44,-432.83C103.73,-409.8 116.21,-386.55 127.5,-369.18"/>
<polygon fill="#5a22e7" stroke="black" points="130.55,-370.91 133.24,-360.67 124.75,-367 130.55,-370.91"/>
</g>
<!-- website_youtube_dl_common&#45;&gt;website_youtube_dl_flaskAPI_youtube -->
<g id="edge16" class="edge">
<title>website_youtube_dl_common&#45;&gt;website_youtube_dl_flaskAPI_youtube</title><style>.edge>path:hover{stroke-width:8}</style>
<path fill="none" stroke="black" d="M99.44,-432.83C112.82,-361.09 217.29,-411.52 235.44,-340.84"/>
<path fill="none" stroke="black" d="M235.44,-338.84C243.54,-307.29 272.94,-287.08 302.24,-274.46"/>
<polygon fill="#5a22e7" stroke="black" points="303.77,-277.61 311.73,-270.62 301.15,-271.13 303.77,-277.61"/>
</g>
<!-- website_youtube_dl_common_configKeys -->
<g id="node10" class="node">
<title>website_youtube_dl_common_configKeys</title><style>.edge>path:hover{stroke-width:8}</style>
<ellipse fill="#6a47c2" stroke="black" cx="843.44" cy="-621.79" rx="82.96" ry="28.98"/>
<text text-anchor="middle" x="843.44" y="-630.29" font-family="Helvetica,sans-Serif" font-size="10.00" fill="#ffffff">website_youtube_dl.</text>
<text text-anchor="middle" x="843.44" y="-619.29" font-family="Helvetica,sans-Serif" font-size="10.00" fill="#ffffff">common.</text>
<text text-anchor="middle" x="843.44" y="-608.29" font-family="Helvetica,sans-Serif" font-size="10.00" fill="#ffffff">configKeys</text>
</g>
<!-- website_youtube_dl_common_youtubeConfigManager -->
<g id="node14" class="node">
<title>website_youtube_dl_common_youtubeConfigManager</title><style>.edge>path:hover{stroke-width:8}</style>
<ellipse fill="#5f33cc" stroke="black" cx="839.44" cy="-527.81" rx="91.85" ry="28.98"/>
<text text-anchor="middle" x="839.44" y="-536.31" font-family="Helvetica,sans-Serif" font-size="10.00" fill="#ffffff">website_youtube_dl.</text>
<text text-anchor="middle" x="839.44" y="-525.31" font-family="Helvetica,sans-Serif" font-size="10.00" fill="#ffffff">common.</text>
<text text-anchor="middle" x="839.44" y="-514.31" font-family="Helvetica,sans-Serif" font-size="10.00" fill="#ffffff">youtubeConfigManager</text>
</g>
<!-- website_youtube_dl_common_configKeys&#45;&gt;website_youtube_dl_common_youtubeConfigManager -->
<g id="edge17" class="edge">
<title>website_youtube_dl_common_configKeys&#45;&gt;website_youtube_dl_common_youtubeConfigManager</title><style>.edge>path:hover{stroke-width:8}</style>
<path fill="none" stroke="black" d="M842.21,-592.69C841.87,-584.66 841.48,-575.75 841.11,-567.21"/>
<polygon fill="#6a47c2" stroke="black" points="844.6,-566.89 840.66,-557.05 837.6,-567.19 844.6,-566.89"/>
</g>
<!-- website_youtube_dl_common_youtubeDL -->
<g id="node16" class="node">
<title>website_youtube_dl_common_youtubeDL</title><style>.edge>path:hover{stroke-width:8}</style>
<polygon fill="blue" stroke="black" points="576.94,-454.33 459.94,-454.33 459.94,-413.33 576.94,-413.33 576.94,-454.33"/>
<text text-anchor="middle" x="518.44" y="-442.33" font-family="Helvetica,sans-Serif" font-size="10.00" fill="white">website_youtube_dl.</text>
<text text-anchor="middle" x="518.44" y="-431.33" font-family="Helvetica,sans-Serif" font-size="10.00" fill="white">common.</text>
<text text-anchor="middle" x="518.44" y="-420.33" font-family="Helvetica,sans-Serif" font-size="10.00" fill="white">youtubeDL</text>
</g>
<!-- website_youtube_dl_common_easyID3Manager&#45;&gt;website_youtube_dl_common_youtubeDL -->
<g id="edge18" class="edge">
<title>website_youtube_dl_common_easyID3Manager&#45;&gt;website_youtube_dl_common_youtubeDL</title><style>.edge>path:hover{stroke-width:8}</style>
<path fill="none" stroke="black" d="M369.88,-504.19C399.51,-490.36 437.37,-472.68 467.46,-458.63"/>
<polygon fill="#532db4" stroke="black" points="468.95,-461.8 476.53,-454.4 465.99,-455.45 468.95,-461.8"/>
</g>
<!-- website_youtube_dl_common_easyID3Manager&#45;&gt;website_youtube_dl_flaskAPI_youtube -->
<g id="edge19" class="edge">
<title>website_youtube_dl_common_easyID3Manager&#45;&gt;website_youtube_dl_flaskAPI_youtube</title><style>.edge>path:hover{stroke-width:8}</style>
<path fill="none" stroke="black" d="M297.04,-500.03C281.79,-482.38 262.44,-458.28 248.44,-434.83"/>
<path fill="none" stroke="black" d="M248.44,-432.83C227.27,-397.38 225.17,-380.84 235.44,-340.84"/>
</g>
<!-- website_youtube_dl_common_myLogger&#45;&gt;website_youtube_dl -->
<g id="edge20" class="edge">
<title>website_youtube_dl_common_myLogger&#45;&gt;website_youtube_dl</title><style>.edge>path:hover{stroke-width:8}</style>
<path fill="none" stroke="black" d="M701.27,-506.06C757.64,-483.94 837.5,-450.04 839.44,-434.83"/>
<path fill="none" stroke="black" d="M839.44,-432.83C849.4,-354.58 792.99,-319.11 839.44,-255.35"/>
</g>
<!-- website_youtube_dl_common_myLogger&#45;&gt;website_youtube_dl_common_youtubeDL -->
<g id="edge21" class="edge">
<title>website_youtube_dl_common_myLogger&#45;&gt;website_youtube_dl_common_youtubeDL</title><style>.edge>path:hover{stroke-width:8}</style>
<path fill="none" stroke="black" d="M611.12,-501.43C593.44,-488.73 572.08,-473.38 554.32,-460.62"/>
<polygon fill="#5f33cc" stroke="black" points="556.09,-457.58 545.93,-454.58 552.01,-463.26 556.09,-457.58"/>
</g>
<!-- website_youtube_dl_common_youtubeConfigManager&#45;&gt;website_youtube_dl -->
<g id="edge22" class="edge">
<title>website_youtube_dl_common_youtubeConfigManager&#45;&gt;website_youtube_dl</title><style>.edge>path:hover{stroke-width:8}</style>
<path fill="none" stroke="black" d="M838.44,-498.6C838.04,-480.38 837.97,-456.18 839.44,-434.83"/>
</g>
<!-- website_youtube_dl_common_youtubeConfigManager&#45;&gt;website_youtube_dl_common_youtubeDL -->
<g id="edge23" class="edge">
<title>website_youtube_dl_common_youtubeConfigManager&#45;&gt;website_youtube_dl_common_youtubeDL</title><style>.edge>path:hover{stroke-width:8}</style>
<path fill="none" stroke="black" d="M772.93,-507.75C718.44,-492.14 641.65,-470.13 586.7,-454.39"/>
<polygon fill="#5f33cc" stroke="black" points="587.62,-451.01 577.04,-451.62 585.69,-457.74 587.62,-451.01"/>
</g>
<!-- website_youtube_dl_common_youtubeDataKeys -->
<g id="node15" class="node">
<title>website_youtube_dl_common_youtubeDataKeys</title><style>.edge>path:hover{stroke-width:8}</style>
<ellipse fill="#5a22e7" stroke="black" cx="210.44" cy="-621.79" rx="82.96" ry="28.98"/>
<text text-anchor="middle" x="210.44" y="-630.29" font-family="Helvetica,sans-Serif" font-size="10.00" fill="#ffffff">website_youtube_dl.</text>
<text text-anchor="middle" x="210.44" y="-619.29" font-family="Helvetica,sans-Serif" font-size="10.00" fill="#ffffff">common.</text>
<text text-anchor="middle" x="210.44" y="-608.29" font-family="Helvetica,sans-Serif" font-size="10.00" fill="#ffffff">youtubeDataKeys</text>
</g>
<!-- website_youtube_dl_common_youtubeDataKeys&#45;&gt;website_youtube_dl_common_easyID3Manager -->
<g id="edge24" class="edge">
<title>website_youtube_dl_common_youtubeDataKeys&#45;&gt;website_youtube_dl_common_easyID3Manager</title><style>.edge>path:hover{stroke-width:8}</style>
<path fill="none" stroke="black" d="M241.65,-594.93C254.18,-584.54 268.77,-572.45 282.02,-561.47"/>
<polygon fill="#5a22e7" stroke="black" points="284.6,-563.88 290.07,-554.8 280.14,-558.49 284.6,-563.88"/>
</g>
<!-- website_youtube_dl_common_youtubeDataKeys&#45;&gt;website_youtube_dl_common_youtubeDL -->
<g id="edge25" class="edge">
<title>website_youtube_dl_common_youtubeDataKeys&#45;&gt;website_youtube_dl_common_youtubeDL</title><style>.edge>path:hover{stroke-width:8}</style>
<path fill="none" stroke="black" d="M210.44,-526.81C217.8,-513.7 216.76,-506.9 229.44,-498.82 313.72,-445.08 355.33,-490.27 451.44,-462.82 456.31,-461.43 461.31,-459.78 466.27,-457.99"/>
<polygon fill="#5a22e7" stroke="black" points="467.61,-461.23 475.72,-454.42 465.13,-454.68 467.61,-461.23"/>
</g>
<!-- website_youtube_dl_common_youtubeDataKeys&#45;&gt;website_youtube_dl_flaskAPI_emits -->
<g id="edge26" class="edge">
<title>website_youtube_dl_common_youtubeDataKeys&#45;&gt;website_youtube_dl_flaskAPI_emits</title><style>.edge>path:hover{stroke-width:8}</style>
<path fill="none" stroke="black" d="M203.63,-592.84C200.51,-573.62 199.57,-548.17 210.44,-528.81"/>
<path fill="none" stroke="black" d="M210.44,-526.81C230.44,-491.16 214.4,-475.52 210.44,-434.83"/>
<path fill="none" stroke="black" d="M210.44,-432.83C208.04,-408.28 192.53,-385.28 177.63,-368.42"/>
<polygon fill="#5a22e7" stroke="black" points="179.79,-365.6 170.42,-360.65 174.66,-370.36 179.79,-365.6"/>
</g>
<!-- website_youtube_dl_common_youtubeDataKeys&#45;&gt;website_youtube_dl_flaskAPI_youtube -->
<g id="edge27" class="edge">
<title>website_youtube_dl_common_youtubeDataKeys&#45;&gt;website_youtube_dl_flaskAPI_youtube</title><style>.edge>path:hover{stroke-width:8}</style>
<path fill="none" stroke="black" d="M210.44,-432.83C206.33,-390.66 224.9,-381.88 235.44,-340.84"/>
</g>
<!-- website_youtube_dl_common_youtubeDL&#45;&gt;website_youtube_dl -->
<g id="edge28" class="edge">
<title>website_youtube_dl_common_youtubeDL&#45;&gt;website_youtube_dl</title><style>.edge>path:hover{stroke-width:8}</style>
<path fill="none" stroke="black" d="M570.83,-413.32C590.33,-403.2 610.39,-388.71 621.44,-368.84 633.96,-346.31 627.49,-335.9 621.44,-310.85 605.89,-246.51 525.51,-238.36 553.44,-178.35"/>
</g>
<!-- website_youtube_dl_common_youtubeDL&#45;&gt;website_youtube_dl_flaskAPI_youtube -->
<g id="edge29" class="edge">
<title>website_youtube_dl_common_youtubeDL&#45;&gt;website_youtube_dl_flaskAPI_youtube</title><style>.edge>path:hover{stroke-width:8}</style>
<path fill="none" stroke="black" d="M475.32,-413.22C467.48,-410.12 459.29,-407.16 451.44,-404.84 355.44,-376.37 210.54,-437.82 235.44,-340.84"/>
</g>
<!-- website_youtube_dl_common_youtubeLogKeys -->
<g id="node17" class="node">
<title>website_youtube_dl_common_youtubeLogKeys</title><style>.edge>path:hover{stroke-width:8}</style>
<ellipse fill="#6a47c2" stroke="black" cx="359.44" cy="-433.83" rx="82.96" ry="28.98"/>
<text text-anchor="middle" x="359.44" y="-442.33" font-family="Helvetica,sans-Serif" font-size="10.00" fill="#ffffff">website_youtube_dl.</text>
<text text-anchor="middle" x="359.44" y="-431.33" font-family="Helvetica,sans-Serif" font-size="10.00" fill="#ffffff">common.</text>
<text text-anchor="middle" x="359.44" y="-420.33" font-family="Helvetica,sans-Serif" font-size="10.00" fill="#ffffff">youtubeLogKeys</text>
</g>
<!-- website_youtube_dl_common_youtubeLogKeys&#45;&gt;website_youtube_dl_flaskAPI_youtube -->
<g id="edge30" class="edge">
<title>website_youtube_dl_common_youtubeLogKeys&#45;&gt;website_youtube_dl_flaskAPI_youtube</title><style>.edge>path:hover{stroke-width:8}</style>
<path fill="none" stroke="black" d="M297.27,-414.42C261.94,-399.91 226.37,-376.15 235.44,-340.84"/>
</g>
<!-- website_youtube_dl_config -->
<g id="node18" class="node">
<title>website_youtube_dl_config</title><style>.edge>path:hover{stroke-width:8}</style>
<ellipse fill="#653bce" stroke="black" cx="950.44" cy="-99.64" rx="82.96" ry="21.43"/>
<text text-anchor="middle" x="950.44" y="-102.64" font-family="Helvetica,sans-Serif" font-size="10.00" fill="#ffffff">website_youtube_dl.</text>
<text text-anchor="middle" x="950.44" y="-91.64" font-family="Helvetica,sans-Serif" font-size="10.00" fill="#ffffff">config</text>
</g>
<!-- website_youtube_dl_config&#45;&gt;website_youtube_dl -->
<g id="edge31" class="edge">
<title>website_youtube_dl_config&#45;&gt;website_youtube_dl</title><style>.edge>path:hover{stroke-width:8}</style>
<path fill="none" stroke="black" d="M900,-82.71C862.89,-70.99 812.16,-54.97 772.23,-42.36"/>
<polygon fill="#653bce" stroke="black" points="773.18,-38.99 762.59,-39.32 771.07,-45.67 773.18,-38.99"/>
</g>
<!-- website_youtube_dl_youtube_dl_run -->
<g id="node25" class="node">
<title>website_youtube_dl_youtube_dl_run</title><style>.edge>path:hover{stroke-width:8}</style>
<ellipse fill="#6549ac" stroke="black" cx="950.44" cy="-21.21" rx="82.96" ry="21.43"/>
<text text-anchor="middle" x="950.44" y="-24.21" font-family="Helvetica,sans-Serif" font-size="10.00" fill="#ffffff">website_youtube_dl.</text>
<text text-anchor="middle" x="950.44" y="-13.21" font-family="Helvetica,sans-Serif" font-size="10.00" fill="#ffffff">youtube_dl_run</text>
</g>
<!-- website_youtube_dl_config&#45;&gt;website_youtube_dl_youtube_dl_run -->
<g id="edge32" class="edge">
<title>website_youtube_dl_config&#45;&gt;website_youtube_dl_youtube_dl_run</title><style>.edge>path:hover{stroke-width:8}</style>
<path fill="none" stroke="black" d="M950.44,-78.16C950.44,-70.3 950.44,-61.16 950.44,-52.57"/>
<polygon fill="#653bce" stroke="black" points="953.94,-52.49 950.44,-42.49 946.94,-52.49 953.94,-52.49"/>
</g>
<!-- website_youtube_dl_flaskAPI -->
<g id="node19" class="node">
<title>website_youtube_dl_flaskAPI</title><style>.edge>path:hover{stroke-width:8}</style>
<ellipse fill="#6a47c2" stroke="black" cx="708.44" cy="-99.64" rx="82.96" ry="21.43"/>
<text text-anchor="middle" x="708.44" y="-102.64" font-family="Helvetica,sans-Serif" font-size="10.00" fill="#ffffff">website_youtube_dl.</text>
<text text-anchor="middle" x="708.44" y="-91.64" font-family="Helvetica,sans-Serif" font-size="10.00" fill="#ffffff">flaskAPI</text>
</g>
<!-- website_youtube_dl_flaskAPI&#45;&gt;website_youtube_dl -->
<g id="edge33" class="edge">
<title>website_youtube_dl_flaskAPI&#45;&gt;website_youtube_dl</title><style>.edge>path:hover{stroke-width:8}</style>
<path fill="none" stroke="black" d="M708.44,-78.16C708.44,-69.42 708.44,-59.09 708.44,-49.7"/>
<polygon fill="#6a47c2" stroke="black" points="711.94,-49.64 708.44,-39.64 704.94,-49.64 711.94,-49.64"/>
</g>
<!-- website_youtube_dl_flaskAPI_emits&#45;&gt;website_youtube_dl_flaskAPI_youtube -->
<g id="edge34" class="edge">
<title>website_youtube_dl_flaskAPI_emits&#45;&gt;website_youtube_dl_flaskAPI_youtube</title><style>.edge>path:hover{stroke-width:8}</style>
<path fill="none" stroke="black" d="M199.47,-319.21C206.83,-316.39 214.33,-313.54 221.44,-310.85 249.84,-300.12 281.34,-288.36 308.03,-278.44"/>
<polygon fill="blue" stroke="black" points="309.48,-281.64 317.64,-274.88 307.04,-275.08 309.48,-281.64"/>
</g>
<!-- website_youtube_dl_flaskAPI_emits&#45;&gt;website_youtube_dl_flaskAPI_youtubeModifyPlaylist -->
<g id="edge35" class="edge">
<title>website_youtube_dl_flaskAPI_emits&#45;&gt;website_youtube_dl_flaskAPI_youtubeModifyPlaylist</title><style>.edge>path:hover{stroke-width:8}</style>
<path fill="none" stroke="black" d="M140.99,-319.24C134.92,-299.5 130.04,-269.94 148.44,-255.35"/>
</g>
<!-- website_youtube_dl_flaskAPI_flaskMedia -->
<g id="node21" class="node">
<title>website_youtube_dl_flaskAPI_flaskMedia</title><style>.edge>path:hover{stroke-width:8}</style>
<ellipse fill="#6a47c2" stroke="black" cx="346.44" cy="-339.84" rx="82.96" ry="28.98"/>
<text text-anchor="middle" x="346.44" y="-348.34" font-family="Helvetica,sans-Serif" font-size="10.00" fill="#ffffff">website_youtube_dl.</text>
<text text-anchor="middle" x="346.44" y="-337.34" font-family="Helvetica,sans-Serif" font-size="10.00" fill="#ffffff">flaskAPI.</text>
<text text-anchor="middle" x="346.44" y="-326.34" font-family="Helvetica,sans-Serif" font-size="10.00" fill="#ffffff">flaskMedia</text>
</g>
<!-- website_youtube_dl_flaskAPI_flaskMedia&#45;&gt;website_youtube_dl_flaskAPI_youtube -->
<g id="edge36" class="edge">
<title>website_youtube_dl_flaskAPI_flaskMedia&#45;&gt;website_youtube_dl_flaskAPI_youtube</title><style>.edge>path:hover{stroke-width:8}</style>
<path fill="none" stroke="black" d="M354.56,-310.58C356.96,-302.24 359.59,-293.09 362,-284.69"/>
<polygon fill="#6a47c2" stroke="black" points="365.42,-285.48 364.82,-274.9 358.69,-283.55 365.42,-285.48"/>
</g>
<!-- website_youtube_dl_flaskAPI_session&#45;&gt;website_youtube_dl -->
<g id="edge37" class="edge">
<title>website_youtube_dl_flaskAPI_session&#45;&gt;website_youtube_dl</title><style>.edge>path:hover{stroke-width:8}</style>
<path fill="none" stroke="black" d="M607.59,-330.07C691.43,-318.68 815.81,-295.37 839.44,-255.35"/>
<path fill="none" stroke="black" d="M839.44,-253.35C879.94,-184.76 846.77,-143.22 800.44,-78.43 790.34,-64.31 775.48,-53.04 760.64,-44.41"/>
<polygon fill="#5926d9" stroke="black" points="761.89,-41.11 751.44,-39.38 758.53,-47.25 761.89,-41.11"/>
</g>
<!-- website_youtube_dl_flaskAPI_session&#45;&gt;website_youtube_dl_flaskAPI_youtube -->
<g id="edge38" class="edge">
<title>website_youtube_dl_flaskAPI_session&#45;&gt;website_youtube_dl_flaskAPI_youtube</title><style>.edge>path:hover{stroke-width:8}</style>
<path fill="none" stroke="black" d="M484.72,-315.37C463.42,-304.18 437.98,-290.82 416.51,-279.54"/>
<polygon fill="#5926d9" stroke="black" points="418.05,-276.4 407.57,-274.85 414.8,-282.6 418.05,-276.4"/>
</g>
<!-- website_youtube_dl_flaskAPI_session&#45;&gt;website_youtube_dl_flaskAPI_youtubeModifyPlaylist -->
<g id="edge39" class="edge">
<title>website_youtube_dl_flaskAPI_session&#45;&gt;website_youtube_dl_flaskAPI_youtubeModifyPlaylist</title><style>.edge>path:hover{stroke-width:8}</style>
<path fill="none" stroke="black" d="M517.77,-310.89C505.64,-281.84 486.75,-236.6 474.49,-207.22"/>
<polygon fill="#5926d9" stroke="black" points="477.68,-205.79 470.6,-197.91 471.22,-208.49 477.68,-205.79"/>
</g>
<!-- website_youtube_dl_flaskAPI_youtube&#45;&gt;website_youtube_dl -->
<g id="edge40" class="edge">
<title>website_youtube_dl_flaskAPI_youtube&#45;&gt;website_youtube_dl</title><style>.edge>path:hover{stroke-width:8}</style>
<path fill="none" stroke="black" d="M429.22,-249.17C474.18,-242.29 531.99,-224.42 553.44,-178.35"/>
<path fill="none" stroke="black" d="M553.44,-176.35C567.64,-145.85 523.79,-116.56 553.44,-100.64"/>
</g>
<!-- website_youtube_dl_flaskAPI_youtube&#45;&gt;website_youtube_dl_flaskAPI_youtubeModifyPlaylist -->
<g id="edge41" class="edge">
<title>website_youtube_dl_flaskAPI_youtube&#45;&gt;website_youtube_dl_flaskAPI_youtubeModifyPlaylist</title><style>.edge>path:hover{stroke-width:8}</style>
<path fill="none" stroke="black" d="M394.61,-233.65C405.6,-224.69 418.75,-213.97 430.53,-204.36"/>
<polygon fill="blue" stroke="black" points="432.89,-206.96 438.43,-197.93 428.46,-201.53 432.89,-206.96"/>
</g>
<!-- website_youtube_dl_flaskAPI_youtubeModifyPlaylist&#45;&gt;website_youtube_dl -->
<g id="edge42" class="edge">
<title>website_youtube_dl_flaskAPI_youtubeModifyPlaylist&#45;&gt;website_youtube_dl</title><style>.edge>path:hover{stroke-width:8}</style>
<path fill="none" stroke="black" d="M489.93,-156.78C503.71,-146.56 520.41,-133.57 534.44,-120.85 543.57,-112.57 542.57,-106.47 553.44,-100.64"/>
</g>
<!-- yt_dlp -->
<g id="node26" class="node">
<title>yt_dlp</title><style>.edge>path:hover{stroke-width:8}</style>
<ellipse fill="#b653a8" stroke="black" cx="488.44" cy="-704.78" rx="27.84" ry="18"/>
<text text-anchor="middle" x="488.44" y="-702.28" font-family="Helvetica,sans-Serif" font-size="10.00" fill="#ffffff">yt_dlp</text>
</g>
<!-- yt_dlp&#45;&gt;website_youtube_dl_common_youtubeDL -->
<g id="edge43" class="edge">
<title>yt_dlp&#45;&gt;website_youtube_dl_common_youtubeDL</title><style>.edge>path:hover{stroke-width:8}</style>
<path fill="none" stroke="black" d="M490.36,-686.55C495.36,-641.67 508.85,-520.79 515.13,-464.47"/>
<polygon fill="#b653a8" stroke="black" points="518.62,-464.74 516.25,-454.42 511.66,-463.97 518.62,-464.74"/>
</g>
</g>
</svg>
