<?xml version="1.0" encoding="UTF-8" standalone="no"?>
<!DOCTYPE svg PUBLIC "-//W3C//DTD SVG 1.1//EN"
 "http://www.w3.org/Graphics/SVG/1.1/DTD/svg11.dtd">
<!-- Generated by graphviz version 2.43.0 (0)
 -->
<!-- Title: G Pages: 1 -->
<svg width="315pt" height="408pt"
 viewBox="0.00 0.00 315.00 408.00" xmlns="http://www.w3.org/2000/svg" xmlns:xlink="http://www.w3.org/1999/xlink">
<g id="graph0" class="graph" transform="scale(1 1) rotate(0) translate(4 404)">
<title>G</title>
<polygon fill="white" stroke="transparent" points="-4,4 -4,-404 311,-404 311,4 -4,4"/>
<!-- website_youtube_dl.flask_api.routes.web_views.DownloadFileView -->
<g id="node1" class="node">
<title>website_youtube_dl.flask_api.routes.web_views.DownloadFileView</title>
<polygon fill="none" stroke="black" points="0,-0.5 0,-72.5 307,-72.5 307,-0.5 0,-0.5"/>
<text text-anchor="start" x="87" y="-57.3" font-family="Times,serif" font-size="14.00">DownloadFileView</text>
<polyline fill="none" stroke="black" points="0,-49.5 307,-49.5 "/>
<polyline fill="none" stroke="black" points="0,-24.7 307,-24.7 "/>
<text text-anchor="start" x="8" y="-9" font-family="Times,serif" font-size="14.00">get(name: str): Response | Tuple[str, int]</text>
</g>
<!-- website_youtube_dl.flask_api.routes.web_views.IndexView -->
<g id="node2" class="node">
<title>website_youtube_dl.flask_api.routes.web_views.IndexView</title>
<polygon fill="none" stroke="black" points="108,-109.5 108,-181.5 199,-181.5 199,-109.5 108,-109.5"/>
<text text-anchor="start" x="116" y="-166.3" font-family="Times,serif" font-size="14.00">IndexView</text>
<polyline fill="none" stroke="black" points="108,-158.5 199,-158.5 "/>
<polyline fill="none" stroke="black" points="108,-133.7 199,-133.7 "/>
<text text-anchor="start" x="121.5" y="-118" font-family="Times,serif" font-size="14.00">get(): str</text>
</g>
<!-- website_youtube_dl.flask_api.routes.web_views.DownloadFileView&#45;&gt;website_youtube_dl.flask_api.routes.web_views.IndexView -->
<!-- website_youtube_dl.flask_api.routes.web_views.ModifyPlaylistView -->
<g id="node3" class="node">
<title>website_youtube_dl.flask_api.routes.web_views.ModifyPlaylistView</title>
<polygon fill="none" stroke="black" points="76.5,-218.5 76.5,-290.5 230.5,-290.5 230.5,-218.5 76.5,-218.5"/>
<text text-anchor="start" x="84.5" y="-275.3" font-family="Times,serif" font-size="14.00">ModifyPlaylistView</text>
<polyline fill="none" stroke="black" points="76.5,-267.5 230.5,-267.5 "/>
<polyline fill="none" stroke="black" points="76.5,-242.7 230.5,-242.7 "/>
<text text-anchor="start" x="121.5" y="-227" font-family="Times,serif" font-size="14.00">get(): str</text>
</g>
<!-- website_youtube_dl.flask_api.routes.web_views.IndexView&#45;&gt;website_youtube_dl.flask_api.routes.web_views.ModifyPlaylistView -->
<!-- website_youtube_dl.flask_api.routes.web_views.YoutubeView -->
<g id="node4" class="node">
<title>website_youtube_dl.flask_api.routes.web_views.YoutubeView</title>
<polygon fill="none" stroke="black" points="99,-327.5 99,-399.5 208,-399.5 208,-327.5 99,-327.5"/>
<text text-anchor="start" x="107" y="-384.3" font-family="Times,serif" font-size="14.00">YoutubeView</text>
<polyline fill="none" stroke="black" points="99,-376.5 208,-376.5 "/>
<polyline fill="none" stroke="black" points="99,-351.7 208,-351.7 "/>
<text text-anchor="start" x="121.5" y="-336" font-family="Times,serif" font-size="14.00">get(): str</text>
</g>
<!-- website_youtube_dl.flask_api.routes.web_views.ModifyPlaylistView&#45;&gt;website_youtube_dl.flask_api.routes.web_views.YoutubeView -->
</g>
</svg>
