<?xml version="1.0" encoding="UTF-8" standalone="no"?>
<!DOCTYPE svg PUBLIC "-//W3C//DTD SVG 1.1//EN"
 "http://www.w3.org/Graphics/SVG/1.1/DTD/svg11.dtd">
<!-- Generated by graphviz version 2.43.0 (0)
 -->
<!-- Title: G Pages: 1 -->
<svg width="746pt" height="263pt"
 viewBox="0.00 0.00 746.00 263.00" xmlns="http://www.w3.org/2000/svg" xmlns:xlink="http://www.w3.org/1999/xlink">
<g id="graph0" class="graph" transform="scale(1 1) rotate(0) translate(4 259)">
<title>G</title>
<polygon fill="white" stroke="transparent" points="-4,4 -4,-259 742,-259 742,4 -4,4"/>
<!-- website_youtube_dl.flask_api.services.youtube_downloader.BaseYoutubeDownloader -->
<g id="node1" class="node">
<title>website_youtube_dl.flask_api.services.youtube_downloader.BaseYoutubeDownloader</title>
<polygon fill="none" stroke="black" points="156.5,-124.5 156.5,-254.5 581.5,-254.5 581.5,-124.5 156.5,-124.5"/>
<text text-anchor="start" x="280" y="-239.3" font-family="Times,serif" font-size="14.00">BaseYoutubeDownloader</text>
<polyline fill="none" stroke="black" points="156.5,-231.5 581.5,-231.5 "/>
<text text-anchor="start" x="215.5" y="-216.3" font-family="Times,serif" font-size="14.00">config_parser_manager : BaseConfigParser</text>
<text text-anchor="start" x="215.5" y="-201.3" font-family="Times,serif" font-size="14.00">youtube_downloader : YoutubeDL</text>
<polyline fill="none" stroke="black" points="156.5,-193.5 581.5,-193.5 "/>
<text text-anchor="start" x="164.5" y="-177.8" font-family="Times,serif" font-size="14.00">download_single_track(youtube_url: str, req_format)</text>
<text text-anchor="start" x="164.5" y="-162.8" font-family="Times,serif" font-size="14.00">download_single_video(single_media_url: str, req_format)</text>
<text text-anchor="start" x="164.5" y="-147.8" font-family="Times,serif" font-size="14.00">request_playlist_media_info(playlist_url)</text>
<text text-anchor="start" x="164.5" y="-132.8" font-family="Times,serif" font-size="14.00">request_single_media_info(single_media_url)</text>
</g>
<!-- website_youtube_dl.flask_api.services.youtube_downloader.YoutubePlaylistDownloader -->
<g id="node2" class="node">
<title>website_youtube_dl.flask_api.services.youtube_downloader.YoutubePlaylistDownloader</title>
<polygon fill="none" stroke="black" points="0,-0.5 0,-87.5 738,-87.5 738,-0.5 0,-0.5"/>
<text text-anchor="start" x="270.5" y="-72.3" font-family="Times,serif" font-size="14.00">YoutubePlaylistDownloader</text>
<polyline fill="none" stroke="black" points="0,-64.5 738,-64.5 "/>
<polyline fill="none" stroke="black" points="0,-39.7 738,-39.7 "/>
<text text-anchor="start" x="8" y="-24" font-family="Times,serif" font-size="14.00">process_playlist_track(playlistTrack, req_format, playlist_name: str, index: int, downloaded_files: list)</text>
<text text-anchor="start" x="8" y="-9" font-family="Times,serif" font-size="14.00">zip_downloaded_playlist(directory_path, playlist_name, file_paths)</text>
</g>
<!-- website_youtube_dl.flask_api.services.youtube_downloader.YoutubePlaylistDownloader&#45;&gt;website_youtube_dl.flask_api.services.youtube_downloader.BaseYoutubeDownloader -->
<g id="edge1" class="edge">
<title>website_youtube_dl.flask_api.services.youtube_downloader.YoutubePlaylistDownloader&#45;&gt;website_youtube_dl.flask_api.services.youtube_downloader.BaseYoutubeDownloader</title>
<path fill="none" stroke="black" d="M369,-87.67C369,-96.07 369,-105.11 369,-114.21"/>
<polygon fill="none" stroke="black" points="365.5,-114.48 369,-124.48 372.5,-114.48 365.5,-114.48"/>
</g>
</g>
</svg>
