<?xml version="1.0" encoding="UTF-8" standalone="no"?>
<!DOCTYPE svg PUBLIC "-//W3C//DTD SVG 1.1//EN"
 "http://www.w3.org/Graphics/SVG/1.1/DTD/svg11.dtd">
<!-- Generated by graphviz version 2.43.0 (0)
 -->
<!-- Title: G Pages: 1 -->
<svg width="719pt" height="601pt"
 viewBox="0.00 0.00 718.50 601.00" xmlns="http://www.w3.org/2000/svg" xmlns:xlink="http://www.w3.org/1999/xlink">
<g id="graph0" class="graph" transform="scale(1 1) rotate(0) translate(4 597)">
<title>G</title>
<polygon fill="white" stroke="transparent" points="-4,4 -4,-597 714.5,-597 714.5,4 -4,4"/>
<!-- website_youtube_dl.flask_api.sockets.namespaces.base_namespace.MediaBaseNamespace -->
<g id="node1" class="node">
<title>website_youtube_dl.flask_api.sockets.namespaces.base_namespace.MediaBaseNamespace</title>
<polygon fill="none" stroke="black" points="117.5,-352.5 117.5,-422.5 710.5,-422.5 710.5,-352.5 117.5,-352.5"/>
<text text-anchor="start" x="333" y="-407.3" font-family="Times,serif" font-size="14.00">MediaBaseNamespace</text>
<polyline fill="none" stroke="black" points="117.5,-399.5 710.5,-399.5 "/>
<text text-anchor="start" x="369.5" y="-384.3" font-family="Times,serif" font-size="14.00">info_handler</text>
<polyline fill="none" stroke="black" points="117.5,-376.5 710.5,-376.5 "/>
<text text-anchor="start" x="125.5" y="-360.8" font-family="Times,serif" font-size="14.00">finalize_download(full_file_path: str, is_playlist: bool, user_browser_id: str): None</text>
</g>
<!-- website_youtube_dl.flask_api.sockets.namespaces.base_namespace.SessionBaseNamespace -->
<g id="node2" class="node">
<title>website_youtube_dl.flask_api.sockets.namespaces.base_namespace.SessionBaseNamespace</title>
<polygon fill="none" stroke="black" points="270.5,-460.5 270.5,-592.5 557.5,-592.5 557.5,-460.5 270.5,-460.5"/>
<text text-anchor="start" x="328" y="-577.3" font-family="Times,serif" font-size="14.00">SessionBaseNamespace</text>
<polyline fill="none" stroke="black" points="270.5,-569.5 557.5,-569.5 "/>
<polyline fill="none" stroke="black" points="270.5,-544.7 557.5,-544.7 "/>
<text text-anchor="start" x="278.5" y="-529" font-family="Times,serif" font-size="14.00">on_cancelDownload(data: dict): None</text>
<text text-anchor="start" x="278.5" y="-514" font-family="Times,serif" font-size="14.00">on_disconnect(): None</text>
<text text-anchor="start" x="278.5" y="-499" font-family="Times,serif" font-size="14.00">on_getDownloadState(data: dict): dict</text>
<text text-anchor="start" x="278.5" y="-484" font-family="Times,serif" font-size="14.00">on_getHistory(data: dict): None</text>
<text text-anchor="start" x="278.5" y="-469" font-family="Times,serif" font-size="14.00">on_userSession(data: dict): None</text>
</g>
<!-- website_youtube_dl.flask_api.sockets.namespaces.base_namespace.MediaBaseNamespace&#45;&gt;website_youtube_dl.flask_api.sockets.namespaces.base_namespace.SessionBaseNamespace -->
<g id="edge1" class="edge">
<title>website_youtube_dl.flask_api.sockets.namespaces.base_namespace.MediaBaseNamespace&#45;&gt;website_youtube_dl.flask_api.sockets.namespaces.base_namespace.SessionBaseNamespace</title>
<path fill="none" stroke="black" d="M414,-422.72C414,-431.25 414,-440.73 414,-450.39"/>
<polygon fill="none" stroke="black" points="410.5,-450.49 414,-460.49 417.5,-450.49 410.5,-450.49"/>
</g>
<!-- website_youtube_dl.flask_api.sockets.namespaces.playlists_namespace.PlaylistsNamespace -->
<g id="node3" class="node">
<title>website_youtube_dl.flask_api.sockets.namespaces.playlists_namespace.PlaylistsNamespace</title>
<polygon fill="none" stroke="black" points="0,-197.5 0,-314.5 380,-314.5 380,-197.5 0,-197.5"/>
<text text-anchor="start" x="118" y="-299.3" font-family="Times,serif" font-size="14.00">PlaylistsNamespace</text>
<polyline fill="none" stroke="black" points="0,-291.5 380,-291.5 "/>
<polyline fill="none" stroke="black" points="0,-266.7 380,-266.7 "/>
<text text-anchor="start" x="8" y="-251" font-family="Times,serif" font-size="14.00">on_addPlaylist(formData: dict): None</text>
<text text-anchor="start" x="8" y="-236" font-family="Times,serif" font-size="14.00">on_deletePlaylist(formData: dict): None</text>
<text text-anchor="start" x="8" y="-221" font-family="Times,serif" font-size="14.00">on_downloadFromConfigFile(formData: dict): None</text>
<text text-anchor="start" x="8" y="-206" font-family="Times,serif" font-size="14.00">on_playlistName(formData: dict): None</text>
</g>
<!-- website_youtube_dl.flask_api.sockets.namespaces.playlists_namespace.PlaylistsNamespace&#45;&gt;website_youtube_dl.flask_api.sockets.namespaces.base_namespace.MediaBaseNamespace -->
<g id="edge2" class="edge">
<title>website_youtube_dl.flask_api.sockets.namespaces.playlists_namespace.PlaylistsNamespace&#45;&gt;website_youtube_dl.flask_api.sockets.namespaces.base_namespace.MediaBaseNamespace</title>
<path fill="none" stroke="black" d="M289.55,-314.55C308.56,-325.54 328.05,-336.81 345.79,-347.07"/>
<polygon fill="none" stroke="black" points="344.5,-350.36 354.91,-352.34 348,-344.3 344.5,-350.36"/>
</g>
<!-- website_youtube_dl.flask_api.sockets.namespaces.youtube_namespace.YoutubeNamespace -->
<g id="node4" class="node">
<title>website_youtube_dl.flask_api.sockets.namespaces.youtube_namespace.YoutubeNamespace</title>
<polygon fill="none" stroke="black" points="278,-73.5 278,-145.5 550,-145.5 550,-73.5 278,-73.5"/>
<text text-anchor="start" x="343.5" y="-130.3" font-family="Times,serif" font-size="14.00">YoutubeNamespace</text>
<polyline fill="none" stroke="black" points="278,-122.5 550,-122.5 "/>
<polyline fill="none" stroke="black" points="278,-97.7 550,-97.7 "/>
<text text-anchor="start" x="286" y="-82" font-family="Times,serif" font-size="14.00">on_FormData(formData: dict): None</text>
</g>
<!-- website_youtube_dl.flask_api.sockets.namespaces.youtube_namespace.YoutubeNamespace&#45;&gt;website_youtube_dl.flask_api.sockets.namespaces.base_namespace.MediaBaseNamespace -->
<g id="edge3" class="edge">
<title>website_youtube_dl.flask_api.sockets.namespaces.youtube_namespace.YoutubeNamespace&#45;&gt;website_youtube_dl.flask_api.sockets.namespaces.base_namespace.MediaBaseNamespace</title>
<path fill="none" stroke="black" d="M414,-145.74C414,-195.84 414,-287.64 414,-342.26"/>
<polygon fill="none" stroke="black" points="410.5,-342.34 414,-352.34 417.5,-342.34 410.5,-342.34"/>
</g>
<!-- website_youtube_dl.flask_api.sockets.youtube_media_info_handler.YoutubeMediaInfoHandler -->
<g id="node5" class="node">
<title>website_youtube_dl.flask_api.sockets.youtube_media_info_handler.YoutubeMediaInfoHandler</title>
<polygon fill="#f0f0f0" stroke="black" stroke-dasharray="5,2" points="686,-36 482,-36 482,0 686,0 686,-36"/>
<text text-anchor="middle" x="584" y="-14.3" font-family="Times,serif" font-size="14.00">YoutubeMediaInfoHandler</text>
</g>
<!-- website_youtube_dl.flask_api.sockets.youtube_media_info_handler.YoutubeMediaInfoHandler&#45;&gt;website_youtube_dl.flask_api.sockets.namespaces.base_namespace.MediaBaseNamespace -->
<g id="edge4" class="edge">
<title>website_youtube_dl.flask_api.sockets.youtube_media_info_handler.YoutubeMediaInfoHandler&#45;&gt;website_youtube_dl.flask_api.sockets.namespaces.base_namespace.MediaBaseNamespace</title>
<path fill="none" stroke="black" d="M582.88,-36.38C580.83,-61.36 575.28,-108.52 561,-146 532.85,-219.92 481.64,-296.37 447.72,-342.69"/>
<polygon fill="black" stroke="black" points="447.68,-342.74 447.33,-349.94 440.55,-352.39 440.9,-345.19 447.68,-342.74"/>
<text text-anchor="middle" x="597.5" y="-167.8" font-family="Times,serif" font-size="14.00" fill="green">info_handler</text>
</g>
</g>
</svg>
