<?xml version="1.0" encoding="UTF-8" standalone="no"?>
<!DOCTYPE svg PUBLIC "-//W3C//DTD SVG 1.1//EN"
 "http://www.w3.org/Graphics/SVG/1.1/DTD/svg11.dtd">
<!-- Generated by graphviz version 2.43.0 (0)
 -->
<!-- Title: G Pages: 1 -->
<svg width="571pt" height="601pt"
 viewBox="0.00 0.00 571.00 601.00" xmlns="http://www.w3.org/2000/svg" xmlns:xlink="http://www.w3.org/1999/xlink">
<g id="graph0" class="graph" transform="scale(1 1) rotate(0) translate(4 597)">
<title>G</title>
<polygon fill="white" stroke="transparent" points="-4,4 -4,-597 567,-597 567,4 -4,4"/>
<!-- website_youtube_dl.flask_api.sockets.namespaces.base_namespace.MediaBaseNamespace -->
<g id="node1" class="node">
<title>website_youtube_dl.flask_api.sockets.namespaces.base_namespace.MediaBaseNamespace</title>
<polygon fill="none" stroke="black" points="107,-352.5 107,-422.5 557,-422.5 557,-352.5 107,-352.5"/>
<text text-anchor="start" x="251" y="-407.3" font-family="Times,serif" font-size="14.00">MediaBaseNamespace</text>
<polyline fill="none" stroke="black" points="107,-399.5 557,-399.5 "/>
<text text-anchor="start" x="287.5" y="-384.3" font-family="Times,serif" font-size="14.00">info_handler</text>
<polyline fill="none" stroke="black" points="107,-376.5 557,-376.5 "/>
<text text-anchor="start" x="115" y="-360.8" font-family="Times,serif" font-size="14.00">finalize_download(full_file_path, is_playlist, user_browser_id)</text>
</g>
<!-- website_youtube_dl.flask_api.sockets.namespaces.base_namespace.SessionBaseNamespace -->
<g id="node2" class="node">
<title>website_youtube_dl.flask_api.sockets.namespaces.base_namespace.SessionBaseNamespace</title>
<polygon fill="none" stroke="black" points="224.5,-460.5 224.5,-592.5 439.5,-592.5 439.5,-460.5 224.5,-460.5"/>
<text text-anchor="start" x="246" y="-577.3" font-family="Times,serif" font-size="14.00">SessionBaseNamespace</text>
<polyline fill="none" stroke="black" points="224.5,-569.5 439.5,-569.5 "/>
<polyline fill="none" stroke="black" points="224.5,-544.7 439.5,-544.7 "/>
<text text-anchor="start" x="232.5" y="-529" font-family="Times,serif" font-size="14.00">on_cancelDownload(data)</text>
<text text-anchor="start" x="232.5" y="-514" font-family="Times,serif" font-size="14.00">on_disconnect()</text>
<text text-anchor="start" x="232.5" y="-499" font-family="Times,serif" font-size="14.00">on_getDownloadState(data)</text>
<text text-anchor="start" x="232.5" y="-484" font-family="Times,serif" font-size="14.00">on_getHistory(data)</text>
<text text-anchor="start" x="232.5" y="-469" font-family="Times,serif" font-size="14.00">on_userSession(data)</text>
</g>
<!-- website_youtube_dl.flask_api.sockets.namespaces.base_namespace.MediaBaseNamespace&#45;&gt;website_youtube_dl.flask_api.sockets.namespaces.base_namespace.SessionBaseNamespace -->
<g id="edge1" class="edge">
<title>website_youtube_dl.flask_api.sockets.namespaces.base_namespace.MediaBaseNamespace&#45;&gt;website_youtube_dl.flask_api.sockets.namespaces.base_namespace.SessionBaseNamespace</title>
<path fill="none" stroke="black" d="M332,-422.72C332,-431.25 332,-440.73 332,-450.39"/>
<polygon fill="none" stroke="black" points="328.5,-450.49 332,-460.49 335.5,-450.49 328.5,-450.49"/>
</g>
<!-- website_youtube_dl.flask_api.sockets.namespaces.playlists_namespace.PlaylistsNamespace -->
<g id="node3" class="node">
<title>website_youtube_dl.flask_api.sockets.namespaces.playlists_namespace.PlaylistsNamespace</title>
<polygon fill="none" stroke="black" points="0,-197.5 0,-314.5 298,-314.5 298,-197.5 0,-197.5"/>
<text text-anchor="start" x="77" y="-299.3" font-family="Times,serif" font-size="14.00">PlaylistsNamespace</text>
<polyline fill="none" stroke="black" points="0,-291.5 298,-291.5 "/>
<polyline fill="none" stroke="black" points="0,-266.7 298,-266.7 "/>
<text text-anchor="start" x="8" y="-251" font-family="Times,serif" font-size="14.00">on_addPlaylist(formData)</text>
<text text-anchor="start" x="8" y="-236" font-family="Times,serif" font-size="14.00">on_deletePlaylist(formData)</text>
<text text-anchor="start" x="8" y="-221" font-family="Times,serif" font-size="14.00">on_downloadFromConfigFile(formData)</text>
<text text-anchor="start" x="8" y="-206" font-family="Times,serif" font-size="14.00">on_playlistName(formData)</text>
</g>
<!-- website_youtube_dl.flask_api.sockets.namespaces.playlists_namespace.PlaylistsNamespace&#45;&gt;website_youtube_dl.flask_api.sockets.namespaces.base_namespace.MediaBaseNamespace -->
<g id="edge2" class="edge">
<title>website_youtube_dl.flask_api.sockets.namespaces.playlists_namespace.PlaylistsNamespace&#45;&gt;website_youtube_dl.flask_api.sockets.namespaces.base_namespace.MediaBaseNamespace</title>
<path fill="none" stroke="black" d="M230.33,-314.55C245.57,-325.34 261.2,-336.4 275.48,-346.5"/>
<polygon fill="none" stroke="black" points="273.54,-349.42 283.72,-352.34 277.58,-343.7 273.54,-349.42"/>
</g>
<!-- website_youtube_dl.flask_api.sockets.namespaces.youtube_namespace.YoutubeNamespace -->
<g id="node4" class="node">
<title>website_youtube_dl.flask_api.sockets.namespaces.youtube_namespace.YoutubeNamespace</title>
<polygon fill="none" stroke="black" points="237,-73.5 237,-145.5 427,-145.5 427,-73.5 237,-73.5"/>
<text text-anchor="start" x="261.5" y="-130.3" font-family="Times,serif" font-size="14.00">YoutubeNamespace</text>
<polyline fill="none" stroke="black" points="237,-122.5 427,-122.5 "/>
<polyline fill="none" stroke="black" points="237,-97.7 427,-97.7 "/>
<text text-anchor="start" x="245" y="-82" font-family="Times,serif" font-size="14.00">on_FormData(formData)</text>
</g>
<!-- website_youtube_dl.flask_api.sockets.namespaces.youtube_namespace.YoutubeNamespace&#45;&gt;website_youtube_dl.flask_api.sockets.namespaces.base_namespace.MediaBaseNamespace -->
<g id="edge3" class="edge">
<title>website_youtube_dl.flask_api.sockets.namespaces.youtube_namespace.YoutubeNamespace&#45;&gt;website_youtube_dl.flask_api.sockets.namespaces.base_namespace.MediaBaseNamespace</title>
<path fill="none" stroke="black" d="M332,-145.74C332,-195.84 332,-287.64 332,-342.26"/>
<polygon fill="none" stroke="black" points="328.5,-342.34 332,-352.34 335.5,-342.34 328.5,-342.34"/>
</g>
<!-- website_youtube_dl.flask_api.sockets.youtube_media_info_handler.YoutubeMediaInfoHandler -->
<g id="node5" class="node">
<title>website_youtube_dl.flask_api.sockets.youtube_media_info_handler.YoutubeMediaInfoHandler</title>
<polygon fill="#f0f0f0" stroke="black" stroke-dasharray="5,2" points="563,-36 359,-36 359,0 563,0 563,-36"/>
<text text-anchor="middle" x="461" y="-14.3" font-family="Times,serif" font-size="14.00">YoutubeMediaInfoHandler</text>
</g>
<!-- website_youtube_dl.flask_api.sockets.youtube_media_info_handler.YoutubeMediaInfoHandler&#45;&gt;website_youtube_dl.flask_api.sockets.namespaces.base_namespace.MediaBaseNamespace -->
<g id="edge4" class="edge">
<title>website_youtube_dl.flask_api.sockets.youtube_media_info_handler.YoutubeMediaInfoHandler&#45;&gt;website_youtube_dl.flask_api.sockets.namespaces.base_namespace.MediaBaseNamespace</title>
<path fill="none" stroke="black" d="M459.2,-36.15C456.31,-60.84 449.74,-107.65 438,-146 416.36,-216.68 379.65,-294.23 355.62,-341.63"/>
<polygon fill="black" stroke="black" points="355.56,-341.75 356.39,-348.91 350.1,-352.44 349.27,-345.27 355.56,-341.75"/>
<text text-anchor="middle" x="476.5" y="-167.8" font-family="Times,serif" font-size="14.00" fill="green">info_handler</text>
</g>
</g>
</svg>
