<?xml version="1.0" encoding="UTF-8" standalone="no"?>
<!DOCTYPE svg PUBLIC "-//W3C//DTD SVG 1.1//EN"
 "http://www.w3.org/Graphics/SVG/1.1/DTD/svg11.dtd">
<!-- Generated by graphviz version 2.43.0 (0)
 -->
<!-- Title: G Pages: 1 -->
<svg width="162pt" height="408pt"
 viewBox="0.00 0.00 162.00 408.00" xmlns="http://www.w3.org/2000/svg" xmlns:xlink="http://www.w3.org/1999/xlink">
<g id="graph0" class="graph" transform="scale(1 1) rotate(0) translate(4 404)">
<title>G</title>
<polygon fill="white" stroke="transparent" points="-4,4 -4,-404 158,-404 158,4 -4,4"/>
<!-- website_youtube_dl.flask_api.routes.web_views.DownloadFileView -->
<g id="node1" class="node">
<title>website_youtube_dl.flask_api.routes.web_views.DownloadFileView</title>
<polygon fill="none" stroke="black" points="2.5,-0.5 2.5,-72.5 151.5,-72.5 151.5,-0.5 2.5,-0.5"/>
<text text-anchor="start" x="10.5" y="-57.3" font-family="Times,serif" font-size="14.00">DownloadFileView</text>
<polyline fill="none" stroke="black" points="2.5,-49.5 151.5,-49.5 "/>
<polyline fill="none" stroke="black" points="2.5,-24.7 151.5,-24.7 "/>
<text text-anchor="start" x="40.5" y="-9" font-family="Times,serif" font-size="14.00">get(name)</text>
</g>
<!-- website_youtube_dl.flask_api.routes.web_views.IndexView -->
<g id="node2" class="node">
<title>website_youtube_dl.flask_api.routes.web_views.IndexView</title>
<polygon fill="none" stroke="black" points="31.5,-109.5 31.5,-181.5 122.5,-181.5 122.5,-109.5 31.5,-109.5"/>
<text text-anchor="start" x="39.5" y="-166.3" font-family="Times,serif" font-size="14.00">IndexView</text>
<polyline fill="none" stroke="black" points="31.5,-158.5 122.5,-158.5 "/>
<polyline fill="none" stroke="black" points="31.5,-133.7 122.5,-133.7 "/>
<text text-anchor="start" x="60" y="-118" font-family="Times,serif" font-size="14.00">get()</text>
</g>
<!-- website_youtube_dl.flask_api.routes.web_views.DownloadFileView&#45;&gt;website_youtube_dl.flask_api.routes.web_views.IndexView -->
<!-- website_youtube_dl.flask_api.routes.web_views.ModifyPlaylistView -->
<g id="node3" class="node">
<title>website_youtube_dl.flask_api.routes.web_views.ModifyPlaylistView</title>
<polygon fill="none" stroke="black" points="0,-218.5 0,-290.5 154,-290.5 154,-218.5 0,-218.5"/>
<text text-anchor="start" x="8" y="-275.3" font-family="Times,serif" font-size="14.00">ModifyPlaylistView</text>
<polyline fill="none" stroke="black" points="0,-267.5 154,-267.5 "/>
<polyline fill="none" stroke="black" points="0,-242.7 154,-242.7 "/>
<text text-anchor="start" x="60" y="-227" font-family="Times,serif" font-size="14.00">get()</text>
</g>
<!-- website_youtube_dl.flask_api.routes.web_views.IndexView&#45;&gt;website_youtube_dl.flask_api.routes.web_views.ModifyPlaylistView -->
<!-- website_youtube_dl.flask_api.routes.web_views.YoutubeView -->
<g id="node4" class="node">
<title>website_youtube_dl.flask_api.routes.web_views.YoutubeView</title>
<polygon fill="none" stroke="black" points="22.5,-327.5 22.5,-399.5 131.5,-399.5 131.5,-327.5 22.5,-327.5"/>
<text text-anchor="start" x="30.5" y="-384.3" font-family="Times,serif" font-size="14.00">YoutubeView</text>
<polyline fill="none" stroke="black" points="22.5,-376.5 131.5,-376.5 "/>
<polyline fill="none" stroke="black" points="22.5,-351.7 131.5,-351.7 "/>
<text text-anchor="start" x="60" y="-336" font-family="Times,serif" font-size="14.00">get()</text>
</g>
<!-- website_youtube_dl.flask_api.routes.web_views.ModifyPlaylistView&#45;&gt;website_youtube_dl.flask_api.routes.web_views.YoutubeView -->
</g>
</svg>
