<?xml version="1.0" encoding="UTF-8" standalone="no"?>
<!DOCTYPE svg PUBLIC "-//W3C//DTD SVG 1.1//EN"
 "http://www.w3.org/Graphics/SVG/1.1/DTD/svg11.dtd">
<!-- Generated by graphviz version 2.43.0 (0)
 -->
<!-- Title: G Pages: 1 -->
<svg width="1360pt" height="474pt"
 viewBox="0.00 0.00 1359.50 474.00" xmlns="http://www.w3.org/2000/svg" xmlns:xlink="http://www.w3.org/1999/xlink">
<g id="graph0" class="graph" transform="scale(1 1) rotate(0) translate(4 470)">
<title>G</title>
<polygon fill="white" stroke="transparent" points="-4,4 -4,-470 1355.5,-470 1355.5,4 -4,4"/>
<!-- website_youtube_dl.flask_api.sockets.emits.BaseEmit -->
<g id="node1" class="node">
<title>website_youtube_dl.flask_api.sockets.emits.BaseEmit</title>
<polygon fill="none" stroke="black" points="385,-338.5 385,-465.5 903,-465.5 903,-338.5 385,-338.5"/>
<text text-anchor="start" x="609" y="-450.3" font-family="Times,serif" font-size="14.00">BaseEmit</text>
<polyline fill="none" stroke="black" points="385,-442.5 903,-442.5 "/>
<text text-anchor="start" x="592.5" y="-427.3" font-family="Times,serif" font-size="14.00">data_str : str</text>
<text text-anchor="start" x="592.5" y="-412.3" font-family="Times,serif" font-size="14.00">emit_msg : str</text>
<text text-anchor="start" x="592.5" y="-397.3" font-family="Times,serif" font-size="14.00">error_str : str</text>
<polyline fill="none" stroke="black" points="385,-389.5 903,-389.5 "/>
<text text-anchor="start" x="393" y="-374.8" font-family="Times,serif" font-style="italic" font-size="14.00">convert_data_to_message</text>
<text text-anchor="start" x="576" y="-374.8" font-family="Times,serif" font-size="14.00">(data: Any): dict</text>
<text text-anchor="start" x="393" y="-360.8" font-family="Times,serif" font-size="14.00">send_emit(data: Any, session_id: str, namespace: str): None</text>
<text text-anchor="start" x="393" y="-346.8" font-family="Times,serif" font-size="14.00">send_emit_error(error_msg: str, session_id: str, namespace: str): None</text>
</g>
<!-- website_youtube_dl.flask_api.sockets.emits.DownloadMediaFinishEmit -->
<g id="node2" class="node">
<title>website_youtube_dl.flask_api.sockets.emits.DownloadMediaFinishEmit</title>
<polygon fill="none" stroke="black" points="0,-231.5 0,-301.5 388,-301.5 388,-231.5 0,-231.5"/>
<text text-anchor="start" x="97" y="-286.3" font-family="Times,serif" font-size="14.00">DownloadMediaFinishEmit</text>
<polyline fill="none" stroke="black" points="0,-278.5 388,-278.5 "/>
<text text-anchor="start" x="125" y="-263.3" font-family="Times,serif" font-size="14.00">hash_data_key : str</text>
<polyline fill="none" stroke="black" points="0,-255.5 388,-255.5 "/>
<text text-anchor="start" x="8" y="-239.8" font-family="Times,serif" font-size="14.00">convert_data_to_message(genereted_hash: str): dict</text>
</g>
<!-- website_youtube_dl.flask_api.sockets.emits.DownloadMediaFinishEmit&#45;&gt;website_youtube_dl.flask_api.sockets.emits.BaseEmit -->
<g id="edge1" class="edge">
<title>website_youtube_dl.flask_api.sockets.emits.DownloadMediaFinishEmit&#45;&gt;website_youtube_dl.flask_api.sockets.emits.BaseEmit</title>
<path fill="none" stroke="black" d="M308.72,-301.53C343.84,-311.95 383.73,-323.79 423.43,-335.56"/>
<polygon fill="none" stroke="black" points="422.66,-338.99 433.24,-338.47 424.65,-332.28 422.66,-338.99"/>
</g>
<!-- website_youtube_dl.flask_api.sockets.emits.GetPlaylistUrlEmit -->
<g id="node3" class="node">
<title>website_youtube_dl.flask_api.sockets.emits.GetPlaylistUrlEmit</title>
<polygon fill="none" stroke="black" points="165,-123.5 165,-193.5 515,-193.5 515,-123.5 165,-123.5"/>
<text text-anchor="start" x="271.5" y="-178.3" font-family="Times,serif" font-size="14.00">GetPlaylistUrlEmit</text>
<polyline fill="none" stroke="black" points="165,-170.5 515,-170.5 "/>
<text text-anchor="start" x="248" y="-155.3" font-family="Times,serif" font-size="14.00">playlist_url_data_key : str</text>
<polyline fill="none" stroke="black" points="165,-147.5 515,-147.5 "/>
<text text-anchor="start" x="173" y="-131.8" font-family="Times,serif" font-size="14.00">convert_data_to_message(playlistUrl: str): dict</text>
</g>
<!-- website_youtube_dl.flask_api.sockets.emits.GetPlaylistUrlEmit&#45;&gt;website_youtube_dl.flask_api.sockets.emits.BaseEmit -->
<g id="edge2" class="edge">
<title>website_youtube_dl.flask_api.sockets.emits.GetPlaylistUrlEmit&#45;&gt;website_youtube_dl.flask_api.sockets.emits.BaseEmit</title>
<path fill="none" stroke="black" d="M382.91,-193.59C428.01,-229.41 500.18,-286.75 557.23,-332.07"/>
<polygon fill="none" stroke="black" points="555.17,-334.9 565.17,-338.38 559.52,-329.42 555.17,-334.9"/>
</g>
<!-- website_youtube_dl.flask_api.sockets.emits.PlaylistMediaInfoEmit -->
<g id="node4" class="node">
<title>website_youtube_dl.flask_api.sockets.emits.PlaylistMediaInfoEmit</title>
<polygon fill="none" stroke="black" points="337,-0.5 337,-85.5 761,-85.5 761,-0.5 337,-0.5"/>
<text text-anchor="start" x="469" y="-70.3" font-family="Times,serif" font-size="14.00">PlaylistMediaInfoEmit</text>
<polyline fill="none" stroke="black" points="337,-62.5 761,-62.5 "/>
<text text-anchor="start" x="448" y="-47.3" font-family="Times,serif" font-size="14.00">playlist_name_data_key : str</text>
<text text-anchor="start" x="448" y="-32.3" font-family="Times,serif" font-size="14.00">track_list_data_key : str</text>
<polyline fill="none" stroke="black" points="337,-24.5 761,-24.5 "/>
<text text-anchor="start" x="345" y="-8.8" font-family="Times,serif" font-size="14.00">convert_data_to_message(flask_playlist_media: Any): dict</text>
</g>
<!-- website_youtube_dl.flask_api.sockets.emits.PlaylistMediaInfoEmit&#45;&gt;website_youtube_dl.flask_api.sockets.emits.BaseEmit -->
<g id="edge3" class="edge">
<title>website_youtube_dl.flask_api.sockets.emits.PlaylistMediaInfoEmit&#45;&gt;website_youtube_dl.flask_api.sockets.emits.BaseEmit</title>
<path fill="none" stroke="black" d="M546.03,-85.71C543.79,-138.01 544.84,-229.58 572,-302 575.56,-311.5 580.3,-320.9 585.65,-329.91"/>
<polygon fill="none" stroke="black" points="582.69,-331.78 590.95,-338.41 588.63,-328.07 582.69,-331.78"/>
</g>
<!-- website_youtube_dl.flask_api.sockets.emits.PlaylistTrackFinish -->
<g id="node5" class="node">
<title>website_youtube_dl.flask_api.sockets.emits.PlaylistTrackFinish</title>
<polygon fill="none" stroke="black" points="583.5,-231.5 583.5,-301.5 896.5,-301.5 896.5,-231.5 583.5,-231.5"/>
<text text-anchor="start" x="671" y="-286.3" font-family="Times,serif" font-size="14.00">PlaylistTrackFinish</text>
<polyline fill="none" stroke="black" points="583.5,-278.5 896.5,-278.5 "/>
<text text-anchor="start" x="668.5" y="-263.3" font-family="Times,serif" font-size="14.00">index_data_key : str</text>
<polyline fill="none" stroke="black" points="583.5,-255.5 896.5,-255.5 "/>
<text text-anchor="start" x="591.5" y="-239.8" font-family="Times,serif" font-size="14.00">convert_data_to_message(index: int): dict</text>
</g>
<!-- website_youtube_dl.flask_api.sockets.emits.PlaylistTrackFinish&#45;&gt;website_youtube_dl.flask_api.sockets.emits.BaseEmit -->
<g id="edge4" class="edge">
<title>website_youtube_dl.flask_api.sockets.emits.PlaylistTrackFinish&#45;&gt;website_youtube_dl.flask_api.sockets.emits.BaseEmit</title>
<path fill="none" stroke="black" d="M715.53,-301.53C709.19,-310.34 702.13,-320.17 694.98,-330.11"/>
<polygon fill="none" stroke="black" points="691.96,-328.31 688.96,-338.47 697.64,-332.4 691.96,-328.31"/>
</g>
<!-- website_youtube_dl.flask_api.sockets.emits.SingleMediaInfoEmit -->
<g id="node6" class="node">
<title>website_youtube_dl.flask_api.sockets.emits.SingleMediaInfoEmit</title>
<polygon fill="none" stroke="black" points="724,-122.5 724,-194.5 1138,-194.5 1138,-122.5 724,-122.5"/>
<text text-anchor="start" x="855" y="-179.3" font-family="Times,serif" font-size="14.00">SingleMediaInfoEmit</text>
<polyline fill="none" stroke="black" points="724,-171.5 1138,-171.5 "/>
<polyline fill="none" stroke="black" points="724,-146.7 1138,-146.7 "/>
<text text-anchor="start" x="732" y="-131" font-family="Times,serif" font-size="14.00">convert_data_to_message(flask_single_media: Any): dict</text>
</g>
<!-- website_youtube_dl.flask_api.sockets.emits.SingleMediaInfoEmit&#45;&gt;website_youtube_dl.flask_api.sockets.emits.BaseEmit -->
<g id="edge5" class="edge">
<title>website_youtube_dl.flask_api.sockets.emits.SingleMediaInfoEmit&#45;&gt;website_youtube_dl.flask_api.sockets.emits.BaseEmit</title>
<path fill="none" stroke="black" d="M934.28,-194.52C935.3,-226.07 931.72,-271.98 907,-302 897.61,-313.4 886.77,-323.49 874.95,-332.41"/>
<polygon fill="none" stroke="black" points="872.69,-329.73 866.61,-338.41 876.77,-335.41 872.69,-329.73"/>
</g>
<!-- website_youtube_dl.flask_api.sockets.emits.UploadPlaylistToConfigEmit -->
<g id="node7" class="node">
<title>website_youtube_dl.flask_api.sockets.emits.UploadPlaylistToConfigEmit</title>
<polygon fill="none" stroke="black" points="992.5,-8 992.5,-78 1351.5,-78 1351.5,-8 992.5,-8"/>
<text text-anchor="start" x="1071" y="-62.8" font-family="Times,serif" font-size="14.00">UploadPlaylistToConfigEmit</text>
<polyline fill="none" stroke="black" points="992.5,-55 1351.5,-55 "/>
<text text-anchor="start" x="1079" y="-39.8" font-family="Times,serif" font-size="14.00">playlist_list_data_key : str</text>
<polyline fill="none" stroke="black" points="992.5,-32 1351.5,-32 "/>
<text text-anchor="start" x="1000.5" y="-16.3" font-family="Times,serif" font-size="14.00">convert_data_to_message(playlist_list: list): dict</text>
</g>
<!-- website_youtube_dl.flask_api.sockets.emits.UploadPlaylistToConfigEmit&#45;&gt;website_youtube_dl.flask_api.sockets.emits.BaseEmit -->
<g id="edge6" class="edge">
<title>website_youtube_dl.flask_api.sockets.emits.UploadPlaylistToConfigEmit&#45;&gt;website_youtube_dl.flask_api.sockets.emits.BaseEmit</title>
<path fill="none" stroke="black" d="M1175.27,-78.22C1176.61,-111.2 1173.67,-160.97 1149,-195 1092.76,-272.57 1002.09,-321.01 912.98,-351.22"/>
<polygon fill="none" stroke="black" points="911.64,-347.97 903.25,-354.45 913.84,-354.62 911.64,-347.97"/>
</g>
</g>
</svg>
