<?xml version="1.0" encoding="UTF-8" standalone="no"?>
<!DOCTYPE svg PUBLIC "-//W3C//DTD SVG 1.1//EN"
 "http://www.w3.org/Graphics/SVG/1.1/DTD/svg11.dtd">
<!-- Generated by graphviz version 2.43.0 (0)
 -->
<!-- Title: G Pages: 1 -->
<svg width="384pt" height="183pt"
 viewBox="0.00 0.00 384.00 183.00" xmlns="http://www.w3.org/2000/svg" xmlns:xlink="http://www.w3.org/1999/xlink">
<g id="graph0" class="graph" transform="scale(1 1) rotate(0) translate(4 179)">
<title>G</title>
<polygon fill="white" stroke="transparent" points="-4,4 -4,-179 380,-179 380,4 -4,4"/>
<!-- website_youtube_dl.flask_api.sockets.download_registry.DownloadRegistry -->
<g id="node1" class="node">
<title>website_youtube_dl.flask_api.sockets.download_registry.DownloadRegistry</title>
<polygon fill="none" stroke="black" points="0,-0.5 0,-87.5 376,-87.5 376,-0.5 0,-0.5"/>
<text text-anchor="start" x="122" y="-72.3" font-family="Times,serif" font-size="14.00">DownloadRegistry</text>
<polyline fill="none" stroke="black" points="0,-64.5 376,-64.5 "/>
<polyline fill="none" stroke="black" points="0,-39.7 376,-39.7 "/>
<text text-anchor="start" x="8" y="-24" font-family="Times,serif" font-size="14.00">get_file(file_hash: str): Optional[DownloadFileInfo]</text>
<text text-anchor="start" x="8" y="-9" font-family="Times,serif" font-size="14.00">register_file(file_info: DownloadFileInfo): str</text>
</g>
<!-- website_youtube_dl.flask_api.sockets.socket_manager.SocketManager -->
<g id="node2" class="node">
<title>website_youtube_dl.flask_api.sockets.socket_manager.SocketManager</title>
<polygon fill="#f0f0f0" stroke="black" stroke-dasharray="5,2" points="252,-175 124,-175 124,-139 252,-139 252,-175"/>
<text text-anchor="middle" x="188" y="-153.3" font-family="Times,serif" font-size="14.00">SocketManager</text>
</g>
<!-- website_youtube_dl.flask_api.sockets.download_registry.DownloadRegistry&#45;&gt;website_youtube_dl.flask_api.sockets.socket_manager.SocketManager -->
<g id="edge1" class="edge">
<title>website_youtube_dl.flask_api.sockets.download_registry.DownloadRegistry&#45;&gt;website_youtube_dl.flask_api.sockets.socket_manager.SocketManager</title>
<path fill="none" stroke="black" d="M188,-87.6C188,-100.71 188,-114.84 188,-126.83"/>
<polygon fill="black" stroke="black" points="188,-126.85 192,-132.85 188,-138.85 184,-132.85 188,-126.85"/>
<text text-anchor="middle" x="254.5" y="-109.8" font-family="Times,serif" font-size="14.00" fill="green">download_registry</text>
</g>
</g>
</svg>
