<?xml version="1.0" encoding="UTF-8" standalone="no"?>
<!DOCTYPE svg PUBLIC "-//W3C//DTD SVG 1.1//EN"
 "http://www.w3.org/Graphics/SVG/1.1/DTD/svg11.dtd">
<!-- Generated by graphviz version 2.43.0 (0)
 -->
<!-- Title: G Pages: 1 -->
<svg width="1143pt" height="474pt"
 viewBox="0.00 0.00 1143.00 474.00" xmlns="http://www.w3.org/2000/svg" xmlns:xlink="http://www.w3.org/1999/xlink">
<g id="graph0" class="graph" transform="scale(1 1) rotate(0) translate(4 470)">
<title>G</title>
<polygon fill="white" stroke="transparent" points="-4,4 -4,-470 1139,-470 1139,4 -4,4"/>
<!-- website_youtube_dl.flask_api.sockets.emits.BaseEmit -->
<g id="node1" class="node">
<title>website_youtube_dl.flask_api.sockets.emits.BaseEmit</title>
<polygon fill="none" stroke="black" points="354,-338.5 354,-465.5 741,-465.5 741,-338.5 354,-338.5"/>
<text text-anchor="start" x="512.5" y="-450.3" font-family="Times,serif" font-size="14.00">BaseEmit</text>
<polyline fill="none" stroke="black" points="354,-442.5 741,-442.5 "/>
<text text-anchor="start" x="498.5" y="-427.3" font-family="Times,serif" font-size="14.00">data_str : str</text>
<text text-anchor="start" x="498.5" y="-412.3" font-family="Times,serif" font-size="14.00">emit_msg</text>
<text text-anchor="start" x="498.5" y="-397.3" font-family="Times,serif" font-size="14.00">error_str : str</text>
<polyline fill="none" stroke="black" points="354,-389.5 741,-389.5 "/>
<text text-anchor="start" x="362" y="-374.8" font-family="Times,serif" font-style="italic" font-size="14.00">convert_data_to_message</text>
<text text-anchor="start" x="545" y="-374.8" font-family="Times,serif" font-size="14.00">()</text>
<text text-anchor="start" x="362" y="-360.8" font-family="Times,serif" font-size="14.00">send_emit(data, session_id, namespace)</text>
<text text-anchor="start" x="362" y="-346.8" font-family="Times,serif" font-size="14.00">send_emit_error(error_msg, session_id, namespace)</text>
</g>
<!-- website_youtube_dl.flask_api.sockets.emits.DownloadMediaFinishEmit -->
<g id="node2" class="node">
<title>website_youtube_dl.flask_api.sockets.emits.DownloadMediaFinishEmit</title>
<polygon fill="none" stroke="black" points="0,-231.5 0,-301.5 323,-301.5 323,-231.5 0,-231.5"/>
<text text-anchor="start" x="64.5" y="-286.3" font-family="Times,serif" font-size="14.00">DownloadMediaFinishEmit</text>
<polyline fill="none" stroke="black" points="0,-278.5 323,-278.5 "/>
<text text-anchor="start" x="92.5" y="-263.3" font-family="Times,serif" font-size="14.00">hash_data_key : str</text>
<polyline fill="none" stroke="black" points="0,-255.5 323,-255.5 "/>
<text text-anchor="start" x="8" y="-239.8" font-family="Times,serif" font-size="14.00">convert_data_to_message(genereted_hash)</text>
</g>
<!-- website_youtube_dl.flask_api.sockets.emits.DownloadMediaFinishEmit&#45;&gt;website_youtube_dl.flask_api.sockets.emits.BaseEmit -->
<g id="edge1" class="edge">
<title>website_youtube_dl.flask_api.sockets.emits.DownloadMediaFinishEmit&#45;&gt;website_youtube_dl.flask_api.sockets.emits.BaseEmit</title>
<path fill="none" stroke="black" d="M259.9,-301.53C289.71,-311.84 323.52,-323.54 357.22,-335.19"/>
<polygon fill="none" stroke="black" points="356.12,-338.51 366.72,-338.47 358.41,-331.9 356.12,-338.51"/>
</g>
<!-- website_youtube_dl.flask_api.sockets.emits.GetPlaylistUrlEmit -->
<g id="node3" class="node">
<title>website_youtube_dl.flask_api.sockets.emits.GetPlaylistUrlEmit</title>
<polygon fill="none" stroke="black" points="149,-123.5 149,-193.5 434,-193.5 434,-123.5 149,-123.5"/>
<text text-anchor="start" x="223" y="-178.3" font-family="Times,serif" font-size="14.00">GetPlaylistUrlEmit</text>
<polyline fill="none" stroke="black" points="149,-170.5 434,-170.5 "/>
<text text-anchor="start" x="199.5" y="-155.3" font-family="Times,serif" font-size="14.00">playlist_url_data_key : str</text>
<polyline fill="none" stroke="black" points="149,-147.5 434,-147.5 "/>
<text text-anchor="start" x="157" y="-131.8" font-family="Times,serif" font-size="14.00">convert_data_to_message(playlistUrl)</text>
</g>
<!-- website_youtube_dl.flask_api.sockets.emits.GetPlaylistUrlEmit&#45;&gt;website_youtube_dl.flask_api.sockets.emits.BaseEmit -->
<g id="edge2" class="edge">
<title>website_youtube_dl.flask_api.sockets.emits.GetPlaylistUrlEmit&#45;&gt;website_youtube_dl.flask_api.sockets.emits.BaseEmit</title>
<path fill="none" stroke="black" d="M327.64,-193.59C365.46,-229.27 425.89,-286.28 473.84,-331.51"/>
<polygon fill="none" stroke="black" points="471.44,-334.06 481.12,-338.38 476.25,-328.97 471.44,-334.06"/>
</g>
<!-- website_youtube_dl.flask_api.sockets.emits.PlaylistMediaInfoEmit -->
<g id="node4" class="node">
<title>website_youtube_dl.flask_api.sockets.emits.PlaylistMediaInfoEmit</title>
<polygon fill="none" stroke="black" points="292.5,-0.5 292.5,-85.5 644.5,-85.5 644.5,-0.5 292.5,-0.5"/>
<text text-anchor="start" x="388.5" y="-70.3" font-family="Times,serif" font-size="14.00">PlaylistMediaInfoEmit</text>
<polyline fill="none" stroke="black" points="292.5,-62.5 644.5,-62.5 "/>
<text text-anchor="start" x="367.5" y="-47.3" font-family="Times,serif" font-size="14.00">playlist_name_data_key : str</text>
<text text-anchor="start" x="367.5" y="-32.3" font-family="Times,serif" font-size="14.00">track_list_data_key : str</text>
<polyline fill="none" stroke="black" points="292.5,-24.5 644.5,-24.5 "/>
<text text-anchor="start" x="300.5" y="-8.8" font-family="Times,serif" font-size="14.00">convert_data_to_message(flask_playlist_media)</text>
</g>
<!-- website_youtube_dl.flask_api.sockets.emits.PlaylistMediaInfoEmit&#45;&gt;website_youtube_dl.flask_api.sockets.emits.BaseEmit -->
<g id="edge3" class="edge">
<title>website_youtube_dl.flask_api.sockets.emits.PlaylistMediaInfoEmit&#45;&gt;website_youtube_dl.flask_api.sockets.emits.BaseEmit</title>
<path fill="none" stroke="black" d="M466.87,-85.7C466.04,-137.6 468.57,-228.36 491.5,-302 494.33,-311.1 498.09,-320.28 502.31,-329.19"/>
<polygon fill="none" stroke="black" points="499.29,-330.97 506.87,-338.37 505.56,-327.86 499.29,-330.97"/>
</g>
<!-- website_youtube_dl.flask_api.sockets.emits.PlaylistTrackFinish -->
<g id="node5" class="node">
<title>website_youtube_dl.flask_api.sockets.emits.PlaylistTrackFinish</title>
<polygon fill="none" stroke="black" points="502.5,-231.5 502.5,-301.5 750.5,-301.5 750.5,-231.5 502.5,-231.5"/>
<text text-anchor="start" x="557.5" y="-286.3" font-family="Times,serif" font-size="14.00">PlaylistTrackFinish</text>
<polyline fill="none" stroke="black" points="502.5,-278.5 750.5,-278.5 "/>
<text text-anchor="start" x="555" y="-263.3" font-family="Times,serif" font-size="14.00">index_data_key : str</text>
<polyline fill="none" stroke="black" points="502.5,-255.5 750.5,-255.5 "/>
<text text-anchor="start" x="510.5" y="-239.8" font-family="Times,serif" font-size="14.00">convert_data_to_message(index)</text>
</g>
<!-- website_youtube_dl.flask_api.sockets.emits.PlaylistTrackFinish&#45;&gt;website_youtube_dl.flask_api.sockets.emits.BaseEmit -->
<g id="edge4" class="edge">
<title>website_youtube_dl.flask_api.sockets.emits.PlaylistTrackFinish&#45;&gt;website_youtube_dl.flask_api.sockets.emits.BaseEmit</title>
<path fill="none" stroke="black" d="M606.36,-301.53C601.2,-310.26 595.45,-319.97 589.63,-329.81"/>
<polygon fill="none" stroke="black" points="586.58,-328.09 584.5,-338.47 592.6,-331.65 586.58,-328.09"/>
</g>
<!-- website_youtube_dl.flask_api.sockets.emits.SingleMediaInfoEmit -->
<g id="node6" class="node">
<title>website_youtube_dl.flask_api.sockets.emits.SingleMediaInfoEmit</title>
<polygon fill="none" stroke="black" points="613.5,-122.5 613.5,-194.5 955.5,-194.5 955.5,-122.5 613.5,-122.5"/>
<text text-anchor="start" x="708.5" y="-179.3" font-family="Times,serif" font-size="14.00">SingleMediaInfoEmit</text>
<polyline fill="none" stroke="black" points="613.5,-171.5 955.5,-171.5 "/>
<polyline fill="none" stroke="black" points="613.5,-146.7 955.5,-146.7 "/>
<text text-anchor="start" x="621.5" y="-131" font-family="Times,serif" font-size="14.00">convert_data_to_message(flask_single_media)</text>
</g>
<!-- website_youtube_dl.flask_api.sockets.emits.SingleMediaInfoEmit&#45;&gt;website_youtube_dl.flask_api.sockets.emits.BaseEmit -->
<g id="edge5" class="edge">
<title>website_youtube_dl.flask_api.sockets.emits.SingleMediaInfoEmit&#45;&gt;website_youtube_dl.flask_api.sockets.emits.BaseEmit</title>
<path fill="none" stroke="black" d="M787.56,-194.69C788.4,-225.93 784.82,-271.25 761.5,-302 752.99,-313.22 742.91,-323.21 731.82,-332.11"/>
<polygon fill="none" stroke="black" points="729.41,-329.54 723.58,-338.39 733.65,-335.11 729.41,-329.54"/>
</g>
<!-- website_youtube_dl.flask_api.sockets.emits.UploadPlaylistToConfigEmit -->
<g id="node7" class="node">
<title>website_youtube_dl.flask_api.sockets.emits.UploadPlaylistToConfigEmit</title>
<polygon fill="none" stroke="black" points="844,-8 844,-78 1135,-78 1135,-8 844,-8"/>
<text text-anchor="start" x="888.5" y="-62.8" font-family="Times,serif" font-size="14.00">UploadPlaylistToConfigEmit</text>
<polyline fill="none" stroke="black" points="844,-55 1135,-55 "/>
<text text-anchor="start" x="896.5" y="-39.8" font-family="Times,serif" font-size="14.00">playlist_list_data_key : str</text>
<polyline fill="none" stroke="black" points="844,-32 1135,-32 "/>
<text text-anchor="start" x="852" y="-16.3" font-family="Times,serif" font-size="14.00">convert_data_to_message(playlist_list)</text>
</g>
<!-- website_youtube_dl.flask_api.sockets.emits.UploadPlaylistToConfigEmit&#45;&gt;website_youtube_dl.flask_api.sockets.emits.BaseEmit -->
<g id="edge6" class="edge">
<title>website_youtube_dl.flask_api.sockets.emits.UploadPlaylistToConfigEmit&#45;&gt;website_youtube_dl.flask_api.sockets.emits.BaseEmit</title>
<path fill="none" stroke="black" d="M992.16,-78.1C993.02,-110.77 989.69,-160.11 966.5,-195 916.76,-269.85 831.51,-318.5 750.85,-349.61"/>
<polygon fill="none" stroke="black" points="749.15,-346.51 741.03,-353.32 751.63,-353.06 749.15,-346.51"/>
</g>
</g>
</svg>
