<?xml version="1.0" encoding="UTF-8" standalone="no"?>
<!DOCTYPE svg PUBLIC "-//W3C//DTD SVG 1.1//EN"
 "http://www.w3.org/Graphics/SVG/1.1/DTD/svg11.dtd">
<!-- Generated by graphviz version 2.43.0 (0)
 -->
<!-- Title: G Pages: 1 -->
<svg width="592pt" height="196pt"
 viewBox="0.00 0.00 592.00 196.00" xmlns="http://www.w3.org/2000/svg" xmlns:xlink="http://www.w3.org/1999/xlink">
<g id="graph0" class="graph" transform="scale(1 1) rotate(0) translate(4 192)">
<title>G</title>
<polygon fill="white" stroke="transparent" points="-4,4 -4,-192 588,-192 588,4 -4,4"/>
<!-- website_youtube_dl.flask_api.sockets.youtube_media_info_handler.YoutubeMediaInfoHandler -->
<g id="node1" class="node">
<title>website_youtube_dl.flask_api.sockets.youtube_media_info_handler.YoutubeMediaInfoHandler</title>
<polygon fill="none" stroke="black" points="0,-0.5 0,-100.5 584,-100.5 584,-0.5 0,-0.5"/>
<text text-anchor="start" x="198" y="-85.3" font-family="Times,serif" font-size="14.00">YoutubeMediaInfoHandler</text>
<polyline fill="none" stroke="black" points="0,-77.5 584,-77.5 "/>
<text text-anchor="start" x="209" y="-62.3" font-family="Times,serif" font-size="14.00">namespace : NoneType</text>
<polyline fill="none" stroke="black" points="0,-54.5 584,-54.5 "/>
<text text-anchor="start" x="8" y="-38.8" font-family="Times,serif" font-size="14.00">send_emit_media_finish_error(error_msg, user_browser_id)</text>
<text text-anchor="start" x="8" y="-23.8" font-family="Times,serif" font-size="14.00">send_emit_playlist_media(youtube_url, user_browser_id)</text>
<text text-anchor="start" x="8" y="-8.8" font-family="Times,serif" font-size="14.00">send_emit_single_media_info_from_youtube(single_media_url, user_browser_id)</text>
</g>
<!-- website_youtube_dl.flask_api.sockets.namespaces.base_namespace.MediaBaseNamespace -->
<g id="node2" class="node">
<title>website_youtube_dl.flask_api.sockets.namespaces.base_namespace.MediaBaseNamespace</title>
<polygon fill="#f0f0f0" stroke="black" stroke-dasharray="5,2" points="381,-188 203,-188 203,-152 381,-152 381,-188"/>
<text text-anchor="middle" x="292" y="-166.3" font-family="Times,serif" font-size="14.00">MediaBaseNamespace</text>
</g>
<!-- website_youtube_dl.flask_api.sockets.youtube_media_info_handler.YoutubeMediaInfoHandler&#45;&gt;website_youtube_dl.flask_api.sockets.namespaces.base_namespace.MediaBaseNamespace -->
<g id="edge1" class="edge">
<title>website_youtube_dl.flask_api.sockets.youtube_media_info_handler.YoutubeMediaInfoHandler&#45;&gt;website_youtube_dl.flask_api.sockets.namespaces.base_namespace.MediaBaseNamespace</title>
<path fill="none" stroke="black" d="M292,-100.65C292,-113.9 292,-127.82 292,-139.61"/>
<polygon fill="black" stroke="black" points="292,-139.88 296,-145.88 292,-151.88 288,-145.88 292,-139.88"/>
<text text-anchor="middle" x="336.5" y="-122.8" font-family="Times,serif" font-size="14.00" fill="green">info_handler</text>
</g>
</g>
</svg>
