<?xml version="1.0" encoding="UTF-8" standalone="no"?>
<!DOCTYPE svg PUBLIC "-//W3C//DTD SVG 1.1//EN"
 "http://www.w3.org/Graphics/SVG/1.1/DTD/svg11.dtd">
<!-- Generated by graphviz version 2.43.0 (0)
 -->
<!-- Title: G Pages: 1 -->
<svg width="457pt" height="246pt"
 viewBox="0.00 0.00 457.00 246.00" xmlns="http://www.w3.org/2000/svg" xmlns:xlink="http://www.w3.org/1999/xlink">
<g id="graph0" class="graph" transform="scale(1 1) rotate(0) translate(4 242)">
<title>G</title>
<polygon fill="white" stroke="transparent" points="-4,4 -4,-242 453,-242 453,4 -4,4"/>
<!-- website_youtube_dl.flask_api.services.flask_media.FlaskMediaFromPlaylist -->
<g id="node1" class="node">
<title>website_youtube_dl.flask_api.services.flask_media.FlaskMediaFromPlaylist</title>
<polygon fill="none" stroke="black" points="91.5,-8 91.5,-93 282.5,-93 282.5,-8 91.5,-8"/>
<text text-anchor="start" x="99.5" y="-77.8" font-family="Times,serif" font-size="14.00">FlaskMediaFromPlaylist</text>
<polyline fill="none" stroke="black" points="91.5,-70 282.5,-70 "/>
<text text-anchor="start" x="172" y="-54.8" font-family="Times,serif" font-size="14.00">title</text>
<text text-anchor="start" x="172" y="-39.8" font-family="Times,serif" font-size="14.00">url</text>
<polyline fill="none" stroke="black" points="91.5,-32 282.5,-32 "/>
<text text-anchor="start" x="184.5" y="-16.3" font-family="Times,serif" font-size="14.00"> </text>
</g>
<!-- website_youtube_dl.flask_api.services.flask_media.FlaskPlaylistMedia -->
<g id="node2" class="node">
<title>website_youtube_dl.flask_api.services.flask_media.FlaskPlaylistMedia</title>
<polygon fill="none" stroke="black" points="0,-152.5 0,-237.5 374,-237.5 374,-152.5 0,-152.5"/>
<text text-anchor="start" x="119" y="-222.3" font-family="Times,serif" font-size="14.00">FlaskPlaylistMedia</text>
<polyline fill="none" stroke="black" points="0,-214.5 374,-214.5 "/>
<text text-anchor="start" x="43.5" y="-199.3" font-family="Times,serif" font-size="14.00">playlist_name : str</text>
<text text-anchor="start" x="43.5" y="-184.3" font-family="Times,serif" font-size="14.00">track_list : list[FlaskMediaFromPlaylist]</text>
<polyline fill="none" stroke="black" points="0,-176.5 374,-176.5 "/>
<text text-anchor="start" x="8" y="-160.8" font-family="Times,serif" font-size="14.00">init_from_playlist_media(playlist_name, track_list)</text>
</g>
<!-- website_youtube_dl.flask_api.services.flask_media.FlaskMediaFromPlaylist&#45;&gt;website_youtube_dl.flask_api.services.flask_media.FlaskPlaylistMedia -->
<g id="edge1" class="edge">
<title>website_youtube_dl.flask_api.services.flask_media.FlaskMediaFromPlaylist&#45;&gt;website_youtube_dl.flask_api.services.flask_media.FlaskPlaylistMedia</title>
<path fill="none" stroke="black" d="M187,-93.1C187,-107.75 187,-124.43 187,-139.96"/>
<polygon fill="none" stroke="black" points="187,-140.1 191,-146.1 187,-152.1 183,-146.1 187,-140.1"/>
<text text-anchor="middle" x="220.5" y="-122.8" font-family="Times,serif" font-size="14.00" fill="green">track_list</text>
</g>
<!-- website_youtube_dl.flask_api.services.flask_media.FlaskSingleMedia -->
<g id="node3" class="node">
<title>website_youtube_dl.flask_api.services.flask_media.FlaskSingleMedia</title>
<polygon fill="none" stroke="black" points="305,-0.5 305,-100.5 449,-100.5 449,-0.5 305,-0.5"/>
<text text-anchor="start" x="313" y="-85.3" font-family="Times,serif" font-size="14.00">FlaskSingleMedia</text>
<polyline fill="none" stroke="black" points="305,-77.5 449,-77.5 "/>
<text text-anchor="start" x="340.5" y="-62.3" font-family="Times,serif" font-size="14.00">artist : str</text>
<text text-anchor="start" x="340.5" y="-47.3" font-family="Times,serif" font-size="14.00">title : str</text>
<text text-anchor="start" x="340.5" y="-32.3" font-family="Times,serif" font-size="14.00">url : str</text>
<polyline fill="none" stroke="black" points="305,-24.5 449,-24.5 "/>
<text text-anchor="start" x="374.5" y="-8.8" font-family="Times,serif" font-size="14.00"> </text>
</g>
</g>
</svg>
