<?xml version="1.0" encoding="UTF-8" standalone="no"?>
<!DOCTYPE svg PUBLIC "-//W3C//DTD SVG 1.1//EN"
 "http://www.w3.org/Graphics/SVG/1.1/DTD/svg11.dtd">
<!-- Generated by graphviz version 2.43.0 (0)
 -->
<!-- Title: G Pages: 1 -->
<svg width="281pt" height="383pt"
 viewBox="0.00 0.00 281.00 383.00" xmlns="http://www.w3.org/2000/svg" xmlns:xlink="http://www.w3.org/1999/xlink">
<g id="graph0" class="graph" transform="scale(1 1) rotate(0) translate(4 379)">
<title>G</title>
<polygon fill="white" stroke="transparent" points="-4,4 -4,-379 277,-379 277,4 -4,4"/>
<!-- website_youtube_dl.flask_api.sockets.session_data.BrowserSession -->
<g id="node1" class="node">
<title>website_youtube_dl.flask_api.sockets.session_data.BrowserSession</title>
<polygon fill="none" stroke="black" points="21,-0.5 21,-85.5 252,-85.5 252,-0.5 21,-0.5"/>
<text text-anchor="start" x="79" y="-70.3" font-family="Times,serif" font-size="14.00">BrowserSession</text>
<polyline fill="none" stroke="black" points="21,-62.5 252,-62.5 "/>
<text text-anchor="start" x="29" y="-47.3" font-family="Times,serif" font-size="14.00">last_activity_timestamp : float</text>
<text text-anchor="start" x="29" y="-32.3" font-family="Times,serif" font-size="14.00">session_id : str</text>
<polyline fill="none" stroke="black" points="21,-24.5 252,-24.5 "/>
<text text-anchor="start" x="134" y="-8.8" font-family="Times,serif" font-size="14.00"> </text>
</g>
<!-- website_youtube_dl.flask_api.sockets.session_data.DownloadFileInfo -->
<g id="node2" class="node">
<title>website_youtube_dl.flask_api.sockets.session_data.DownloadFileInfo</title>
<polygon fill="none" stroke="black" points="0,-122.5 0,-222.5 273,-222.5 273,-122.5 0,-122.5"/>
<text text-anchor="start" x="73.5" y="-207.3" font-family="Times,serif" font-size="14.00">DownloadFileInfo</text>
<polyline fill="none" stroke="black" points="0,-199.5 273,-199.5 "/>
<text text-anchor="start" x="27" y="-184.3" font-family="Times,serif" font-size="14.00">file_directory_path : NoneType</text>
<text text-anchor="start" x="27" y="-169.3" font-family="Times,serif" font-size="14.00">file_name : NoneType</text>
<text text-anchor="start" x="27" y="-154.3" font-family="Times,serif" font-size="14.00">is_playlist : NoneType</text>
<polyline fill="none" stroke="black" points="0,-146.5 273,-146.5 "/>
<text text-anchor="start" x="8" y="-130.8" font-family="Times,serif" font-size="14.00">set_file_download_data(fullFilePath)</text>
</g>
<!-- website_youtube_dl.flask_api.sockets.session_data.BrowserSession&#45;&gt;website_youtube_dl.flask_api.sockets.session_data.DownloadFileInfo -->
<!-- website_youtube_dl.flask_api.sockets.session_data.UserMessage -->
<g id="node3" class="node">
<title>website_youtube_dl.flask_api.sockets.session_data.UserMessage</title>
<polygon fill="none" stroke="black" points="69,-259.5 69,-374.5 204,-374.5 204,-259.5 69,-259.5"/>
<text text-anchor="start" x="87.5" y="-359.3" font-family="Times,serif" font-size="14.00">UserMessage</text>
<polyline fill="none" stroke="black" points="69,-351.5 204,-351.5 "/>
<text text-anchor="start" x="77" y="-336.3" font-family="Times,serif" font-size="14.00">data</text>
<text text-anchor="start" x="77" y="-321.3" font-family="Times,serif" font-size="14.00">emit_type : Type</text>
<text text-anchor="start" x="77" y="-306.3" font-family="Times,serif" font-size="14.00">is_error : bool</text>
<text text-anchor="start" x="77" y="-291.3" font-family="Times,serif" font-size="14.00">namespace : str</text>
<polyline fill="none" stroke="black" points="69,-283.5 204,-283.5 "/>
<text text-anchor="start" x="134" y="-267.8" font-family="Times,serif" font-size="14.00"> </text>
</g>
<!-- website_youtube_dl.flask_api.sockets.session_data.DownloadFileInfo&#45;&gt;website_youtube_dl.flask_api.sockets.session_data.UserMessage -->
</g>
</svg>
